<?xml version="1.0" encoding="utf-8"?>
<!-- Generator: Adobe Illustrator 15.0.0, SVG Export Plug-In . SVG Version: 6.00 Build 0)  -->
<!DOCTYPE svg PUBLIC "-//W3C//DTD SVG 1.1//EN" "http://www.w3.org/Graphics/SVG/1.1/DTD/svg11.dtd">
<svg version="1.1" id="Layer_1" xmlns:svg="http://www.w3.org/2000/svg"
	 xmlns="http://www.w3.org/2000/svg" xmlns:xlink="http://www.w3.org/1999/xlink" x="0px" y="0px" width="1413.835px"
	 height="1016.445px" viewBox="0 0 1413.835 1016.445" enable-background="new 0 0 1413.835 1016.445" xml:space="preserve">
<g id="watermark">
	<g>
		<path fill="#8C8C8C" d="M1306.021,1014.12l-1.93-5.562h-0.031c0.018,0.216,0.033,0.429,0.045,0.642
			c0.012,0.183,0.021,0.375,0.027,0.574c0.008,0.201,0.012,0.385,0.012,0.551v3.8l-0.754-0.005v-6.36h1.199l1.791,5.183h0.025
			l1.801-5.183h1.203v6.354l-0.811,0.006v-3.854c0-0.148,0.002-0.322,0.01-0.518c0.006-0.195,0.014-0.38,0.02-0.557
			c0.012-0.207,0.021-0.416,0.029-0.625l-0.029-0.008l-1.949,5.562H1306.021L1306.021,1014.12z"/>
		<path fill="#8C8C8C" d="M1313.72,1014.12l-0.16-0.661h-0.035c-0.094,0.131-0.189,0.243-0.285,0.338s-0.201,0.172-0.312,0.231
			c-0.113,0.062-0.24,0.104-0.379,0.136c-0.141,0.028-0.301,0.042-0.482,0.042c-0.197,0-0.383-0.026-0.551-0.084
			c-0.168-0.057-0.312-0.144-0.438-0.261c-0.121-0.116-0.221-0.267-0.287-0.443c-0.068-0.177-0.107-0.388-0.107-0.638
			c0-0.477,0.166-0.841,0.5-1.095c0.336-0.258,0.846-0.396,1.529-0.42l0.799-0.027v-0.301c0-0.193-0.021-0.356-0.064-0.486
			c-0.041-0.13-0.102-0.234-0.182-0.314s-0.178-0.138-0.295-0.172c-0.117-0.035-0.252-0.052-0.402-0.052
			c-0.242,0-0.465,0.034-0.672,0.104c-0.207,0.068-0.406,0.152-0.596,0.25l-0.277-0.587c0.213-0.117,0.453-0.217,0.717-0.298
			c0.264-0.079,0.539-0.12,0.83-0.12c0.295,0,0.551,0.029,0.768,0.09s0.395,0.151,0.533,0.28c0.143,0.13,0.248,0.294,0.316,0.494
			c0.07,0.199,0.105,0.44,0.105,0.728v3.269L1313.72,1014.12L1313.72,1014.12z M1312.271,1013.57c0.178,0,0.34-0.028,0.49-0.084
			c0.148-0.057,0.283-0.14,0.391-0.249c0.111-0.111,0.197-0.252,0.258-0.422c0.064-0.172,0.096-0.369,0.096-0.601v-0.43l-0.621,0.03
			c-0.262,0.012-0.479,0.041-0.656,0.086c-0.176,0.047-0.316,0.111-0.424,0.191c-0.104,0.084-0.182,0.187-0.229,0.303
			c-0.047,0.115-0.068,0.25-0.068,0.396c0,0.269,0.068,0.462,0.211,0.586C1311.851,1013.51,1312.041,1013.57,1312.271,1013.57z"/>
		<path fill="#8C8C8C" d="M1318.701,1013.48h-0.035c-0.062,0.099-0.139,0.189-0.223,0.279c-0.086,0.088-0.184,0.165-0.297,0.231
			c-0.111,0.064-0.236,0.118-0.375,0.156c-0.139,0.035-0.295,0.056-0.471,0.056c-0.271,0-0.518-0.051-0.738-0.154
			c-0.223-0.104-0.416-0.262-0.574-0.469c-0.16-0.207-0.283-0.464-0.369-0.771c-0.088-0.31-0.131-0.663-0.131-1.068
			c0-0.408,0.043-0.769,0.131-1.076c0.086-0.31,0.209-0.567,0.369-0.773c0.158-0.209,0.352-0.366,0.574-0.474
			c0.223-0.104,0.469-0.158,0.738-0.158c0.172,0,0.328,0.021,0.467,0.059s0.264,0.088,0.375,0.15
			c0.113,0.063,0.211,0.139,0.297,0.223s0.164,0.172,0.227,0.266h0.053c-0.01-0.1-0.018-0.191-0.023-0.283
			c-0.006-0.074-0.014-0.15-0.02-0.23c-0.006-0.078-0.01-0.145-0.01-0.188l0.006-1.893h0.791v6.763h-0.641L1318.701,1013.48z
			 M1317.451,1013.55c0.221,0,0.406-0.033,0.561-0.102c0.15-0.065,0.273-0.168,0.369-0.306c0.094-0.136,0.164-0.308,0.209-0.512
			s0.068-0.441,0.076-0.716v-0.177c0-0.292-0.02-0.554-0.059-0.78c-0.041-0.229-0.105-0.418-0.201-0.574
			c-0.094-0.153-0.219-0.271-0.375-0.351s-0.352-0.119-0.586-0.119c-0.391,0-0.68,0.157-0.861,0.474
			c-0.186,0.315-0.277,0.771-0.277,1.359c0,0.604,0.094,1.058,0.277,1.354C1316.771,1013.4,1317.06,1013.55,1317.451,1013.55z"/>
		<path fill="#8C8C8C" d="M1322.851,1014.21c-0.318,0-0.609-0.053-0.875-0.16c-0.262-0.104-0.49-0.264-0.68-0.469
			c-0.189-0.207-0.338-0.461-0.441-0.766c-0.105-0.308-0.156-0.651-0.156-1.045c0-0.396,0.049-0.744,0.145-1.057
			c0.096-0.311,0.23-0.574,0.404-0.789c0.174-0.216,0.383-0.381,0.623-0.492s0.51-0.17,0.803-0.17c0.287,0,0.545,0.053,0.771,0.153
			c0.229,0.104,0.422,0.248,0.582,0.436c0.16,0.188,0.283,0.411,0.367,0.675c0.088,0.263,0.131,0.554,0.131,0.873v0.488h-3.008
			c0.014,0.561,0.133,0.973,0.354,1.234c0.223,0.263,0.551,0.396,0.986,0.396c0.15,0,0.285-0.009,0.412-0.021
			c0.125-0.013,0.248-0.035,0.365-0.062s0.229-0.063,0.342-0.104c0.111-0.041,0.221-0.089,0.334-0.142v0.702
			c-0.117,0.057-0.23,0.104-0.342,0.146s-0.229,0.074-0.342,0.102c-0.117,0.024-0.24,0.045-0.365,0.058
			C1323.134,1014.206,1323.001,1014.21,1322.851,1014.21z M1322.66,1009.92c-0.33,0-0.592,0.112-0.781,0.339
			c-0.193,0.229-0.309,0.557-0.338,0.985h2.139c0-0.196-0.02-0.378-0.061-0.541c-0.037-0.164-0.1-0.305-0.182-0.419
			c-0.084-0.115-0.188-0.205-0.314-0.271C1322.99,1009.95,1322.841,1009.92,1322.66,1009.92z"/>
		<path fill="#8C8C8C" d="M1331.671,1014.12l-0.73-2.678c-0.012-0.055-0.025-0.111-0.043-0.178
			c-0.018-0.063-0.035-0.136-0.051-0.207c-0.02-0.07-0.037-0.146-0.055-0.223c-0.021-0.074-0.037-0.147-0.057-0.222
			c-0.041-0.169-0.082-0.341-0.125-0.521h-0.023c-0.041,0.184-0.08,0.356-0.117,0.524c-0.033,0.146-0.066,0.294-0.105,0.448
			c-0.037,0.15-0.068,0.281-0.102,0.391l-0.75,2.66h-0.918l-1.221-4.771h0.83l0.57,2.539c0.027,0.129,0.059,0.271,0.086,0.423
			c0.025,0.151,0.057,0.305,0.082,0.452c0.023,0.148,0.049,0.288,0.068,0.421c0.021,0.134,0.037,0.238,0.049,0.322h0.025
			c0.014-0.074,0.033-0.177,0.059-0.302c0.025-0.126,0.053-0.26,0.082-0.399c0.031-0.141,0.062-0.278,0.096-0.417
			c0.029-0.139,0.061-0.254,0.09-0.351l0.779-2.69h0.852l0.748,2.69c0.025,0.098,0.057,0.215,0.09,0.348
			c0.033,0.135,0.064,0.271,0.098,0.407c0.033,0.139,0.061,0.271,0.088,0.396c0.025,0.128,0.045,0.231,0.055,0.315h0.027
			c0.01-0.074,0.021-0.177,0.041-0.302c0.021-0.126,0.043-0.267,0.068-0.415c0.023-0.149,0.053-0.308,0.084-0.464
			c0.029-0.157,0.061-0.308,0.094-0.44l0.596-2.529h0.809l-1.232,4.771L1331.671,1014.12L1331.671,1014.12z"/>
		<path fill="#8C8C8C" d="M1334.621,1008.06c0-0.175,0.045-0.3,0.133-0.379c0.088-0.078,0.197-0.116,0.328-0.116
			c0.062,0,0.123,0.012,0.182,0.027c0.057,0.021,0.105,0.049,0.146,0.089c0.041,0.041,0.074,0.093,0.102,0.154
			c0.021,0.062,0.037,0.137,0.037,0.224c0,0.168-0.045,0.293-0.139,0.376c-0.092,0.083-0.199,0.123-0.326,0.123
			c-0.133,0-0.24-0.04-0.328-0.12C1334.671,1008.35,1334.621,1008.23,1334.621,1008.06z M1335.48,1014.12h-0.791l-0.008-4.771h0.791
			L1335.48,1014.12z"/>
		<path fill="#8C8C8C" d="M1338.431,1013.56c0.051,0,0.111-0.003,0.176-0.01c0.066-0.006,0.127-0.013,0.189-0.021
			c0.061-0.011,0.115-0.021,0.166-0.031s0.09-0.021,0.115-0.028v0.602c-0.037,0.017-0.086,0.034-0.146,0.052
			c-0.059,0.018-0.121,0.033-0.189,0.046c-0.066,0.015-0.143,0.021-0.219,0.03c-0.072,0.008-0.145,0.011-0.221,0.011
			c-0.18,0-0.348-0.021-0.5-0.068c-0.15-0.048-0.285-0.126-0.395-0.237c-0.111-0.112-0.197-0.269-0.266-0.458
			c-0.061-0.192-0.094-0.438-0.094-0.729v-2.773h-0.674l0.004-0.352l0.674-0.339l0.338-0.999h0.457v1.096h1.199v0.598h-1.199v2.769
			c0,0.281,0.045,0.492,0.139,0.636C1338.07,1013.49,1338.22,1013.56,1338.431,1013.56z"/>
		<path fill="#8C8C8C" d="M1342.99,1014.12v-3.073c0-0.377-0.076-0.659-0.227-0.848c-0.152-0.188-0.393-0.282-0.715-0.282
			c-0.234,0-0.434,0.037-0.594,0.111c-0.156,0.075-0.285,0.188-0.383,0.336c-0.1,0.146-0.166,0.328-0.209,0.544
			c-0.041,0.214-0.062,0.461-0.062,0.739v2.473h-0.791l0.002-6.76h0.791v2.008l-0.035,0.626h0.045
			c0.072-0.124,0.158-0.232,0.258-0.323s0.209-0.167,0.328-0.229c0.117-0.062,0.244-0.104,0.377-0.137
			c0.133-0.025,0.271-0.043,0.408-0.043c0.531,0,0.93,0.141,1.199,0.416c0.268,0.275,0.4,0.72,0.4,1.326v3.117L1342.99,1014.12
			L1342.99,1014.12z"/>
	</g>
	<g>
		<path fill="#8C8C8C" d="M1364.751,1014.1h-1.324l-0.006-6.35h3.641v1.104h-2.316v1.641h2.156v1.1h-2.156L1364.751,1014.1
			L1364.751,1014.1z"/>
		<path fill="#8C8C8C" d="M1370.781,1009.15c0.035,0,0.074,0.002,0.115,0.002c0.043,0.002,0.084,0.006,0.121,0.01
			c0.041,0.005,0.076,0.009,0.109,0.014c0.031,0.004,0.059,0.01,0.074,0.018v1.242c-0.021-0.008-0.057-0.012-0.096-0.018
			c-0.041-0.007-0.084-0.012-0.129-0.018c-0.045-0.004-0.09-0.006-0.133-0.01c-0.043-0.002-0.08-0.002-0.107-0.002
			c-0.172,0-0.326,0.021-0.473,0.064c-0.145,0.043-0.27,0.113-0.369,0.211c-0.102,0.098-0.184,0.225-0.24,0.383
			c-0.057,0.157-0.084,0.354-0.084,0.581v2.476h-1.324l0.006-4.863h1.004l0.191,0.729h0.066c0.068-0.125,0.146-0.236,0.229-0.34
			c0.078-0.103,0.172-0.188,0.27-0.259c0.1-0.071,0.213-0.126,0.338-0.165C1370.47,1009.17,1370.621,1009.15,1370.781,1009.15z"/>
		<path fill="#8C8C8C" d="M1372.101,1007.99c0-0.125,0.018-0.229,0.055-0.312c0.039-0.084,0.09-0.148,0.154-0.2
			c0.066-0.051,0.143-0.086,0.23-0.104c0.088-0.021,0.184-0.03,0.279-0.03c0.1,0,0.189,0.01,0.275,0.03
			c0.088,0.02,0.164,0.055,0.23,0.104c0.064,0.052,0.117,0.116,0.156,0.2c0.041,0.083,0.061,0.188,0.061,0.312
			c0,0.122-0.02,0.225-0.061,0.309c-0.039,0.084-0.092,0.151-0.156,0.203c-0.062,0.05-0.143,0.086-0.23,0.108
			c-0.086,0.021-0.18,0.03-0.275,0.03c-0.098,0-0.189-0.012-0.279-0.03c-0.09-0.021-0.164-0.061-0.23-0.108
			c-0.064-0.051-0.115-0.119-0.154-0.203C1372.121,1008.21,1372.101,1008.11,1372.101,1007.99z M1373.48,1014.1h-1.324l-0.006-4.858
			h1.326L1373.48,1014.1z"/>
		<path fill="#8C8C8C" d="M1376.89,1013.13c0.131,0,0.254-0.016,0.371-0.045c0.117-0.027,0.234-0.062,0.357-0.106v0.985
			c-0.125,0.063-0.277,0.116-0.463,0.157c-0.186,0.042-0.387,0.062-0.605,0.062c-0.211,0-0.408-0.022-0.59-0.071
			c-0.186-0.052-0.342-0.139-0.477-0.261c-0.133-0.122-0.236-0.286-0.312-0.493c-0.076-0.209-0.113-0.47-0.113-0.781v-2.336h-0.635
			l-0.004-0.562l0.729-0.441l0.385-1.024h0.848v1.034h1.184v0.995h-1.184v2.343c0,0.188,0.049,0.327,0.141,0.417
			C1376.621,1013.09,1376.74,1013.13,1376.89,1013.13z"/>
		<path fill="#8C8C8C" d="M1381.761,1014.1h-3.57v-0.779l1.984-3.064h-1.854l-0.002-1.015h3.354v0.857l-1.92,2.985h2.004
			L1381.761,1014.1L1381.761,1014.1z"/>
		<path fill="#8C8C8C" d="M1382.701,1007.99c0-0.125,0.02-0.229,0.057-0.312c0.039-0.084,0.09-0.148,0.152-0.2
			c0.066-0.051,0.145-0.086,0.23-0.104c0.086-0.021,0.182-0.03,0.281-0.03c0.098,0,0.189,0.01,0.275,0.03
			c0.088,0.02,0.164,0.055,0.229,0.104c0.062,0.052,0.115,0.116,0.154,0.2c0.039,0.083,0.061,0.188,0.061,0.312
			c0,0.122-0.02,0.225-0.061,0.309c-0.037,0.084-0.092,0.151-0.154,0.203c-0.062,0.05-0.145,0.086-0.229,0.108
			c-0.086,0.021-0.182,0.03-0.275,0.03c-0.1,0-0.193-0.012-0.281-0.03c-0.088-0.021-0.164-0.061-0.23-0.108
			c-0.062-0.051-0.113-0.119-0.152-0.203C1382.72,1008.21,1382.701,1008.11,1382.701,1007.99z M1384.08,1014.1h-1.318v-4.858h1.324
			L1384.08,1014.1z"/>
		<path fill="#8C8C8C" d="M1389.73,1014.1h-1.32v-2.839c0-0.351-0.053-0.611-0.156-0.787s-0.275-0.265-0.51-0.265
			c-0.172,0-0.316,0.035-0.434,0.104c-0.115,0.07-0.209,0.175-0.275,0.312c-0.066,0.136-0.115,0.304-0.146,0.504
			c-0.027,0.2-0.043,0.429-0.043,0.688v2.284h-1.322v-4.858h1.012l0.182,0.621h0.072c0.068-0.124,0.152-0.23,0.254-0.321
			c0.102-0.089,0.209-0.163,0.326-0.221c0.119-0.06,0.246-0.104,0.379-0.128c0.137-0.028,0.271-0.043,0.408-0.043
			c0.238,0,0.455,0.031,0.646,0.104c0.193,0.067,0.359,0.174,0.5,0.318c0.143,0.146,0.246,0.328,0.32,0.555
			c0.074,0.225,0.113,0.492,0.113,0.807v3.168h-0.006V1014.1z"/>
		<path fill="#8C8C8C" d="M1395.16,1009.25v0.722l-0.707,0.223c0.059,0.1,0.1,0.199,0.121,0.308c0.021,0.106,0.033,0.22,0.033,0.343
			c0,0.246-0.039,0.473-0.115,0.677c-0.078,0.202-0.193,0.38-0.35,0.521c-0.152,0.146-0.346,0.258-0.578,0.337
			c-0.229,0.08-0.5,0.119-0.807,0.119c-0.068,0-0.143-0.003-0.219-0.012c-0.078-0.009-0.137-0.017-0.176-0.021
			c-0.059,0.049-0.105,0.103-0.139,0.152c-0.031,0.054-0.049,0.117-0.049,0.191c0,0.062,0.02,0.108,0.059,0.146
			c0.035,0.038,0.086,0.063,0.145,0.087c0.062,0.021,0.133,0.036,0.215,0.044c0.08,0.008,0.164,0.012,0.25,0.012h0.756
			c0.236,0,0.447,0.025,0.631,0.081c0.189,0.057,0.344,0.135,0.475,0.246c0.129,0.109,0.229,0.249,0.299,0.419
			c0.068,0.169,0.104,0.372,0.104,0.605c0,0.273-0.053,0.521-0.164,0.745c-0.107,0.224-0.273,0.408-0.494,0.563
			c-0.219,0.154-0.486,0.273-0.812,0.355c-0.324,0.082-0.699,0.123-1.125,0.123c-0.33,0-0.619-0.031-0.865-0.096
			c-0.244-0.062-0.449-0.148-0.615-0.27c-0.164-0.116-0.287-0.258-0.371-0.424c-0.084-0.164-0.125-0.354-0.125-0.562
			c0-0.177,0.031-0.33,0.094-0.46c0.061-0.131,0.143-0.243,0.244-0.336c0.1-0.093,0.217-0.168,0.346-0.227
			c0.129-0.06,0.262-0.104,0.396-0.136c-0.062-0.024-0.119-0.062-0.184-0.107c-0.059-0.047-0.111-0.102-0.16-0.159
			c-0.047-0.063-0.086-0.129-0.115-0.203c-0.029-0.072-0.047-0.148-0.047-0.229c0-0.095,0.016-0.18,0.041-0.252
			c0.027-0.076,0.066-0.146,0.117-0.214c0.055-0.062,0.117-0.125,0.197-0.184c0.078-0.06,0.166-0.117,0.266-0.18
			c-0.256-0.11-0.457-0.287-0.605-0.53c-0.15-0.244-0.227-0.529-0.227-0.859c0-0.26,0.041-0.493,0.121-0.697
			c0.082-0.207,0.201-0.382,0.357-0.523c0.154-0.145,0.35-0.252,0.582-0.328c0.23-0.076,0.498-0.113,0.801-0.113
			c0.057,0,0.121,0.006,0.193,0.014s0.145,0.018,0.217,0.023c0.068,0.012,0.137,0.021,0.195,0.033
			c0.061,0.01,0.107,0.021,0.145,0.029h1.65V1009.25z M1391.691,1014.79c0,0.073,0.016,0.145,0.047,0.211
			c0.029,0.068,0.08,0.129,0.15,0.182c0.066,0.054,0.16,0.096,0.271,0.124c0.113,0.03,0.252,0.047,0.416,0.047
			c0.453,0,0.793-0.062,1.02-0.19c0.23-0.127,0.346-0.298,0.346-0.514c0-0.185-0.07-0.306-0.215-0.364
			c-0.143-0.062-0.359-0.091-0.658-0.091h-0.613c-0.078,0-0.162,0.009-0.252,0.025c-0.09,0.02-0.172,0.054-0.248,0.101
			c-0.074,0.046-0.141,0.106-0.189,0.184S1391.691,1014.68,1391.691,1014.79z M1392.16,1010.84c0,0.264,0.051,0.468,0.148,0.612
			c0.098,0.146,0.248,0.217,0.447,0.217c0.209,0,0.357-0.07,0.451-0.217s0.139-0.352,0.139-0.612s-0.045-0.468-0.137-0.622
			c-0.092-0.15-0.242-0.229-0.453-0.229C1392.361,1009.98,1392.16,1010.27,1392.16,1010.84z"/>
		<path fill="#8C8C8C" d="M1395.91,1013.48c0-0.138,0.021-0.253,0.061-0.348c0.041-0.095,0.096-0.172,0.162-0.229
			c0.068-0.06,0.148-0.103,0.244-0.126c0.092-0.026,0.191-0.039,0.299-0.039c0.104,0,0.197,0.013,0.289,0.039
			c0.092,0.023,0.172,0.066,0.242,0.126c0.068,0.057,0.123,0.134,0.162,0.229c0.041,0.095,0.062,0.21,0.062,0.348
			c0,0.13-0.021,0.24-0.062,0.335c-0.039,0.093-0.094,0.17-0.162,0.229c-0.07,0.062-0.15,0.104-0.242,0.133
			c-0.092,0.027-0.188,0.042-0.289,0.042c-0.104,0-0.207-0.015-0.299-0.042c-0.096-0.025-0.176-0.069-0.244-0.133
			c-0.066-0.061-0.123-0.138-0.162-0.229C1395.931,1013.72,1395.91,1013.61,1395.91,1013.48z"/>
		<path fill="#8C8C8C" d="M1402.871,1011.66c0,0.406-0.053,0.767-0.152,1.079c-0.104,0.312-0.252,0.575-0.441,0.79
			c-0.191,0.215-0.43,0.378-0.705,0.487c-0.275,0.111-0.586,0.167-0.934,0.167c-0.32,0-0.615-0.056-0.887-0.167
			c-0.27-0.11-0.502-0.272-0.697-0.487c-0.193-0.215-0.35-0.479-0.459-0.79c-0.107-0.313-0.164-0.673-0.164-1.079
			c0-0.402,0.053-0.76,0.154-1.072c0.104-0.314,0.25-0.576,0.441-0.789c0.193-0.209,0.424-0.369,0.703-0.479
			c0.281-0.11,0.588-0.164,0.938-0.164c0.318,0,0.615,0.055,0.887,0.164s0.502,0.271,0.693,0.482
			c0.197,0.213,0.354,0.479,0.459,0.789C1402.82,1010.9,1402.871,1011.26,1402.871,1011.66z M1399.791,1011.66
			c0,0.482,0.068,0.851,0.205,1.093c0.137,0.246,0.357,0.368,0.664,0.368s0.523-0.123,0.66-0.37
			c0.137-0.245,0.205-0.608,0.205-1.091c0-0.483-0.068-0.846-0.205-1.084s-0.357-0.357-0.668-0.357c-0.305,0-0.523,0.119-0.66,0.357
			C1399.851,1010.82,1399.791,1011.18,1399.791,1011.66z"/>
		<path fill="#8C8C8C" d="M1406.591,1009.15c0.035,0,0.072,0.002,0.113,0.002c0.043,0.002,0.084,0.006,0.121,0.01
			c0.039,0.005,0.076,0.009,0.107,0.014c0.033,0.004,0.061,0.01,0.076,0.018v1.242c-0.021-0.008-0.057-0.012-0.096-0.018
			c-0.041-0.007-0.082-0.012-0.131-0.018c-0.045-0.004-0.088-0.006-0.131-0.01c-0.045-0.002-0.08-0.002-0.107-0.002
			c-0.172,0-0.328,0.021-0.475,0.064c-0.143,0.043-0.266,0.113-0.369,0.211c-0.102,0.098-0.182,0.225-0.236,0.383
			c-0.059,0.157-0.084,0.354-0.084,0.581v2.476h-1.326l0.004-4.863h1.006l0.193,0.729h0.064c0.068-0.125,0.146-0.236,0.227-0.34
			c0.082-0.103,0.172-0.188,0.271-0.259c0.102-0.071,0.213-0.126,0.338-0.165C1406.291,1009.17,1406.431,1009.15,1406.591,1009.15z"
			/>
		<path fill="#8C8C8C" d="M1411.9,1009.25v0.722l-0.707,0.223c0.059,0.1,0.1,0.199,0.121,0.308s0.033,0.22,0.033,0.343
			c0,0.246-0.039,0.473-0.115,0.677c-0.08,0.202-0.193,0.38-0.35,0.521c-0.152,0.146-0.348,0.258-0.578,0.337
			c-0.232,0.08-0.5,0.119-0.809,0.119c-0.066,0-0.143-0.003-0.219-0.012c-0.078-0.009-0.137-0.017-0.176-0.021
			c-0.057,0.049-0.104,0.103-0.137,0.152c-0.033,0.054-0.049,0.117-0.049,0.191c0,0.062,0.018,0.108,0.057,0.146
			c0.037,0.037,0.088,0.063,0.146,0.087c0.061,0.021,0.133,0.036,0.215,0.044c0.08,0.008,0.164,0.012,0.25,0.012h0.756
			c0.234,0,0.445,0.025,0.631,0.081c0.188,0.057,0.344,0.135,0.473,0.246c0.129,0.109,0.229,0.249,0.299,0.419
			c0.068,0.169,0.104,0.372,0.104,0.605c0,0.273-0.053,0.521-0.164,0.745c-0.109,0.224-0.275,0.408-0.494,0.563
			c-0.219,0.154-0.488,0.273-0.814,0.355c-0.322,0.082-0.697,0.123-1.125,0.123c-0.328,0-0.617-0.031-0.863-0.096
			c-0.246-0.062-0.451-0.148-0.617-0.27c-0.162-0.116-0.285-0.258-0.369-0.424c-0.084-0.164-0.125-0.354-0.125-0.562
			c0-0.177,0.029-0.33,0.092-0.46c0.061-0.131,0.145-0.243,0.244-0.336c0.104-0.093,0.217-0.168,0.346-0.227
			c0.129-0.06,0.264-0.104,0.396-0.136c-0.061-0.024-0.119-0.062-0.182-0.107c-0.061-0.047-0.113-0.102-0.16-0.159
			c-0.047-0.063-0.088-0.129-0.117-0.203c-0.029-0.073-0.045-0.151-0.045-0.229c0-0.095,0.016-0.18,0.039-0.253
			c0.027-0.075,0.066-0.146,0.121-0.213c0.051-0.062,0.115-0.126,0.193-0.184c0.078-0.06,0.166-0.117,0.266-0.18
			c-0.254-0.109-0.455-0.287-0.604-0.529c-0.148-0.244-0.225-0.531-0.225-0.861c0-0.26,0.039-0.492,0.121-0.696
			c0.08-0.207,0.197-0.384,0.355-0.524c0.154-0.143,0.352-0.252,0.582-0.328c0.23-0.074,0.5-0.111,0.801-0.111
			c0.059,0,0.123,0.005,0.193,0.013c0.072,0.008,0.146,0.017,0.217,0.024c0.07,0.011,0.137,0.021,0.195,0.031
			c0.062,0.012,0.109,0.021,0.146,0.03L1411.9,1009.25L1411.9,1009.25z M1408.421,1014.79c0,0.073,0.016,0.145,0.045,0.211
			c0.031,0.068,0.082,0.129,0.148,0.182c0.068,0.054,0.162,0.096,0.271,0.124c0.115,0.03,0.252,0.047,0.418,0.047
			c0.451,0,0.793-0.062,1.021-0.19c0.229-0.127,0.344-0.298,0.344-0.514c0-0.185-0.072-0.306-0.215-0.364
			c-0.143-0.062-0.361-0.091-0.66-0.091h-0.611c-0.08,0-0.164,0.009-0.252,0.025c-0.09,0.021-0.174,0.054-0.248,0.101
			c-0.076,0.046-0.139,0.106-0.188,0.184C1408.451,1014.58,1408.421,1014.68,1408.421,1014.79z M1408.9,1010.84
			c0,0.264,0.049,0.468,0.148,0.612c0.1,0.146,0.248,0.217,0.447,0.217c0.209,0,0.355-0.07,0.451-0.217
			c0.094-0.146,0.141-0.352,0.141-0.612s-0.045-0.468-0.139-0.622c-0.094-0.15-0.242-0.229-0.453-0.229
			C1409.101,1009.98,1408.9,1010.27,1408.9,1010.84z"/>
	</g>
	<g>
		<path fill="#8C8C8C" d="M1357.49,1006.37h-8.145c-0.533,0-0.965,0.432-0.965,0.964v8.146c0,0.529,0.432,0.964,0.965,0.964h5.549
			l3.557-3.56v-5.546C1358.46,1006.8,1358.031,1006.37,1357.49,1006.37z M1355.82,1010.1h-1.074v0.401h1.074v1.601h-2.195v2.06
			h-2.572v-4.67l0.988-0.99h3.779v1.604l0,0V1010.1L1355.82,1010.1z"/>
	</g>
</g>
<g transform="translate(271.755,205.613)">
	<g id="schematicLabel">
		<text transform="matrix(1 0 0 1 8.544922e-04 6.675)" font-family="'ArialMT'" font-size="9">U1</text>
	</g>
</g>
<g transform="translate(162.155,214.413)">
	<g id="schematic">
		
			<rect x="22.68" y="1.08" fill="none" stroke="#000000" stroke-width="2.16" stroke-linecap="round" stroke-linejoin="round" width="86.4" height="108"/>
		<text id="label" transform="matrix(1 0 0 1 41.3977 58.6798)" font-family="'ArialMT'" font-size="18.36">9DOF</text>
		<circle cx="95.761" cy="14.4" r="10.8"/>
		<text transform="matrix(1 0 0 1 89.7132 21.9601)" fill="#FFFFFF" font-family="'Arial-BoldMT'" font-size="19.8">?</text>
		
			<line fill="none" stroke="#000000" stroke-width="2.16" stroke-linecap="round" stroke-linejoin="round" x1="1.081" y1="22.68" x2="21.601" y2="22.68"/>
		<rect id="connector0pin" x="0.001" y="21.6" fill="none" width="21.6" height="2.16"/>
		<rect id="connector0terminal" x="0.001" y="21.6" fill="none" width="2.16" height="2.16"/>
		<text id="label0" transform="matrix(1 0 0 1 28.0808 25.2003)" font-family="'ArialMT'" font-size="9.36">1</text>
		
			<line fill="none" stroke="#000000" stroke-width="2.16" stroke-linecap="round" stroke-linejoin="round" x1="1.081" y1="44.28" x2="21.601" y2="44.28"/>
		<rect id="connector1pin" x="0.001" y="43.2" fill="none" width="21.6" height="2.16"/>
		<rect id="connector1terminal" x="0.001" y="43.2" fill="none" width="2.16" height="2.16"/>
		<text id="label1" transform="matrix(1 0 0 1 28.0808 46.7999)" font-family="'ArialMT'" font-size="9.36">2</text>
		
			<line fill="none" stroke="#000000" stroke-width="2.16" stroke-linecap="round" stroke-linejoin="round" x1="1.081" y1="65.88" x2="21.601" y2="65.88"/>
		<rect id="connector2pin" x="0.001" y="64.8" fill="none" width="21.6" height="2.16"/>
		<rect id="connector2terminal" x="0.001" y="64.8" fill="none" width="2.16" height="2.16"/>
		<text id="label2" transform="matrix(1 0 0 1 28.0808 68.3995)" font-family="'ArialMT'" font-size="9.36">3</text>
		
			<line fill="none" stroke="#000000" stroke-width="2.16" stroke-linecap="round" stroke-linejoin="round" x1="1.081" y1="87.48" x2="21.601" y2="87.48"/>
		<rect id="connector3pin" x="0.001" y="86.4" fill="none" width="21.6" height="2.16"/>
		<rect id="connector3terminal" x="0.001" y="86.4" fill="none" width="2.16" height="2.16"/>
		<text id="label3" transform="matrix(1 0 0 1 28.0808 90.0001)" font-family="'ArialMT'" font-size="9.36">4</text>
	</g>
</g>
<g transform="translate(783.509,175.213)">
	<g id="schematicLabel_1_">
		<text transform="matrix(1 0 0 1 3.051758e-04 6.6747)" font-family="'ArialMT'" font-size="9">Teensy++1</text>
	</g>
</g>
<g transform="translate(570.955,184.013)">
	<g id="schematic_1_">
		
			<rect x="22.433" y="28.946" fill="none" stroke="#000000" stroke-width="2.415" stroke-linecap="round" stroke-linejoin="round" width="167.133" height="709.532"/>
		
			<line fill="none" stroke="#000000" stroke-width="2.2495" stroke-linecap="round" stroke-linejoin="round" x1="1.277" y1="71.386" x2="22.514" y2="71.386"/>
		
			<line fill="none" stroke="#000000" stroke-width="2.415" stroke-linecap="round" stroke-linejoin="round" x1="1.246" y1="155.645" x2="22.433" y2="155.645"/>
		
			<line fill="none" stroke="#000000" stroke-width="2.415" stroke-linecap="round" stroke-linejoin="round" x1="1.246" y1="176.88" x2="22.433" y2="176.88"/>
		
			<line fill="none" stroke="#000000" stroke-width="2.415" stroke-linecap="round" stroke-linejoin="round" x1="1.246" y1="197.751" x2="22.433" y2="197.751"/>
		
			<line fill="none" stroke="#000000" stroke-width="2.415" stroke-linecap="round" stroke-linejoin="round" x1="1.246" y1="219.352" x2="22.433" y2="219.352"/>
		
			<line fill="none" stroke="#000000" stroke-width="2.415" stroke-linecap="round" stroke-linejoin="round" x1="1.246" y1="240.95" x2="22.433" y2="240.95"/>
		
			<line fill="none" stroke="#000000" stroke-width="2.415" stroke-linecap="round" stroke-linejoin="round" x1="1.246" y1="262.549" x2="22.433" y2="262.549"/>
		
			<line fill="none" stroke="#000000" stroke-width="2.415" stroke-linecap="round" stroke-linejoin="round" x1="0.815" y1="478.329" x2="22.058" y2="478.329"/>
		
			<line fill="none" stroke="#000000" stroke-width="2.415" stroke-linecap="round" stroke-linejoin="round" x1="0.815" y1="499.565" x2="22.058" y2="499.565"/>
		
			<line fill="none" stroke="#000000" stroke-width="2.415" stroke-linecap="round" stroke-linejoin="round" x1="0.815" y1="563.638" x2="22.058" y2="563.638"/>
		
			<line fill="none" stroke="#000000" stroke-width="2.415" stroke-linecap="round" stroke-linejoin="round" x1="0.815" y1="584.874" x2="22.058" y2="584.874"/>
		
			<line fill="none" stroke="#000000" stroke-width="2.415" stroke-linecap="round" stroke-linejoin="round" x1="0.815" y1="606.111" x2="22.058" y2="606.111"/>
		
			<line fill="none" stroke="#000000" stroke-width="2.415" stroke-linecap="round" stroke-linejoin="round" x1="0.815" y1="627.347" x2="22.058" y2="627.347"/>
		
			<line fill="none" stroke="#000000" stroke-width="2.415" stroke-linecap="round" stroke-linejoin="round" x1="0.815" y1="648.582" x2="22.058" y2="648.582"/>
		
			<line fill="none" stroke="#000000" stroke-width="2.415" stroke-linecap="round" stroke-linejoin="round" x1="0.815" y1="669.82" x2="22.058" y2="669.82"/>
		
			<line fill="none" stroke="#000000" stroke-width="2.415" stroke-linecap="round" stroke-linejoin="round" x1="0.815" y1="691.057" x2="22.058" y2="691.057"/>
		
			<line fill="none" stroke="#000000" stroke-width="2.415" stroke-linecap="round" stroke-linejoin="round" x1="210.808" y1="118.765" x2="189.564" y2="118.765"/>
		
			<line fill="none" stroke="#000000" stroke-width="2.415" stroke-linecap="round" stroke-linejoin="round" x1="210.808" y1="140" x2="189.564" y2="140"/>
		<text transform="matrix(1 0 0 1 30.4044 74.1032)" font-family="'ArialMT'" font-size="9.9889">RST</text>
		<text transform="matrix(1 0 0 1 30.4044 95.363)" font-family="'ArialMT'" font-size="9.9889">AREF</text>
		<text transform="matrix(1 0 0 1 32.2764 158.1364)" font-family="'ArialMT'" font-size="9.9889">F0 - A0</text>
		<text transform="matrix(1 0 0 1 32.2764 179.571)" font-family="'ArialMT'" font-size="9.9889">F1 - A1</text>
		<text transform="matrix(1 0 0 1 32.2764 201.0114)" font-family="'ArialMT'" font-size="9.9889">F2 - A2</text>
		<text transform="matrix(1 0 0 1 32.2764 222.4479)" font-family="'ArialMT'" font-size="9.9889">F3 - A3</text>
		<text transform="matrix(1 0 0 1 32.2764 243.8864)" font-family="'ArialMT'" font-size="9.9889">F4 - A4</text>
		<text transform="matrix(1 0 0 1 32.2764 265.3249)" font-family="'ArialMT'" font-size="9.9889">F5 - A5</text>
		
			<line fill="none" stroke="#000000" stroke-width="2.415" stroke-linecap="round" stroke-linejoin="round" x1="1.246" y1="284.149" x2="22.433" y2="284.149"/>
		
			<line fill="none" stroke="#000000" stroke-width="2.415" stroke-linecap="round" stroke-linejoin="round" x1="1.246" y1="305.751" x2="22.433" y2="305.751"/>
		<text transform="matrix(1 0 0 1 32.2764 285.5456)" font-family="'ArialMT'" font-size="9.9889">F6 - A6</text>
		<text transform="matrix(1 0 0 1 32.2764 306.9811)" font-family="'ArialMT'" font-size="9.9889">F7 - A7</text>
		
			<line fill="none" stroke="#000000" stroke-width="1.9517" stroke-linecap="round" stroke-linejoin="round" x1="106.065" y1="28.946" x2="106.065" y2="7.711"/>
		
			<line fill="none" stroke="#000000" stroke-width="1.9517" stroke-linecap="round" stroke-linejoin="round" x1="22.404" y1="92.411" x2="1.17" y2="92.411"/>
		<text transform="matrix(1 0 0 1 30.4044 116.9626)" font-family="'ArialMT'" font-size="9.9889">ALE</text>
		
			<line fill="none" stroke="#000000" stroke-width="1.9517" stroke-linecap="round" stroke-linejoin="round" x1="22.404" y1="114.011" x2="1.17" y2="114.011"/>
		<text transform="matrix(1 0 0 1 97.7237 46.1071)" font-family="'ArialMT'" font-size="9.9889">Vcc</text>
		<text transform="matrix(0 1 -1 0 78.7203 199.3698)" font-family="'ArialMT'" font-size="9.9889">Analog Input</text>
		<text transform="matrix(1 0 0 1 32.2764 480.7663)" font-family="'ArialMT'" font-size="9.9889">PA1</text>
		<text transform="matrix(1 0 0 1 32.2764 502.3747)" font-family="'ArialMT'" font-size="9.9889">PA0</text>
		<text transform="matrix(1 0 0 1 32.2764 565.9128)" font-family="'ArialMT'" font-size="9.9889">B6</text>
		<text transform="matrix(1 0 0 1 32.2764 587.5251)" font-family="'ArialMT'" font-size="9.9889">B5</text>
		<text transform="matrix(1 0 0 1 32.2764 608.2819)" font-family="'ArialMT'" font-size="9.9889">B4</text>
		<text transform="matrix(1 0 0 1 32.2764 629.8884)" font-family="'ArialMT'" font-size="9.9889">B3</text>
		<text transform="matrix(1 0 0 1 32.2764 651.071)" font-family="'ArialMT'" font-size="9.9889">B2</text>
		<text transform="matrix(1 0 0 1 32.2764 672.6794)" font-family="'ArialMT'" font-size="9.9889">B1</text>
		<text transform="matrix(1 0 0 1 3.4254 602.9919)" font-family="'ArialMT'" font-size="6.9922">PWM</text>
		<text transform="matrix(1 0 0 1 3.4254 581.654)" font-family="'ArialMT'" font-size="6.9922">PWM</text>
		<text transform="matrix(1 0 0 1 3.4254 560.4811)" font-family="'ArialMT'" font-size="6.9922">PWM</text>
		<text transform="matrix(1 0 0 1 3.3477 538.8932)" font-family="'ArialMT'" font-size="6.9922">PWM</text>
		<text transform="matrix(1 0 0 1 32.2764 693.4352)" font-family="'ArialMT'" font-size="9.9889">B0</text>
		<text transform="matrix(1 0 0 1 165.8511 121.5173)" font-family="'ArialMT'" font-size="9.9889">E7</text>
		<text transform="matrix(1 0 0 1 165.8511 142.6979)" font-family="'ArialMT'" font-size="9.9889">E6</text>
		<text transform="matrix(0 -1 1 0 149.6588 407.5251)" font-family="'ArialMT'" font-size="9.9889">Digital Input/Output</text>
		<text transform="matrix(0 1 -1 0 70.6461 481.4977)" font-family="'ArialMT'" font-size="9.9889">Digital Input/Output</text>
		<g>
			<text transform="matrix(1 0 0 1 78.5718 101.8356)" font-family="'ArialMT'" font-size="17.98">Teensy</text>
			<text transform="matrix(1 0 0 1 81.5118 123.4108)" font-family="'ArialMT'" font-size="17.98">++ 2.0</text>
		</g>
		
			<line fill="none" stroke="#000000" stroke-width="1.9517" stroke-linecap="round" stroke-linejoin="round" x1="106.065" y1="759.714" x2="106.065" y2="738.477"/>
		<text transform="matrix(1 0 0 1 95.5596 728.2897)" font-family="'ArialMT'" font-size="9.9889">GND</text>
		
			<line fill="none" stroke="#000000" stroke-width="2.415" stroke-linecap="round" stroke-linejoin="round" x1="0.741" y1="456.978" x2="21.982" y2="456.978"/>
		<text transform="matrix(1 0 0 1 32.2764 459.8317)" font-family="'ArialMT'" font-size="9.9889">PA2</text>
		
			<line fill="none" stroke="#000000" stroke-width="2.415" stroke-linecap="round" stroke-linejoin="round" x1="0.815" y1="413.53" x2="22.058" y2="413.53"/>
		
			<line fill="none" stroke="#000000" stroke-width="2.415" stroke-linecap="round" stroke-linejoin="round" x1="0.815" y1="434.767" x2="22.058" y2="434.767"/>
		<text transform="matrix(1 0 0 1 32.2764 415.9655)" font-family="'ArialMT'" font-size="9.9889">PA4</text>
		<text transform="matrix(1 0 0 1 32.2764 437.5749)" font-family="'ArialMT'" font-size="9.9889">PA3</text>
		
			<line fill="none" stroke="#000000" stroke-width="2.415" stroke-linecap="round" stroke-linejoin="round" x1="0.741" y1="392.179" x2="21.982" y2="392.179"/>
		<text transform="matrix(1 0 0 1 32.2764 395.0319)" font-family="'ArialMT'" font-size="9.9889">PA5</text>
		
			<line fill="none" stroke="#000000" stroke-width="2.415" stroke-linecap="round" stroke-linejoin="round" x1="0.815" y1="370.33" x2="22.058" y2="370.33"/>
		<text transform="matrix(1 0 0 1 32.2764 372.7663)" font-family="'ArialMT'" font-size="9.9889">PA6</text>
		
			<line fill="none" stroke="#000000" stroke-width="2.415" stroke-linecap="round" stroke-linejoin="round" x1="0.741" y1="348.979" x2="21.982" y2="348.979"/>
		<text transform="matrix(1 0 0 1 32.2764 351.8317)" font-family="'ArialMT'" font-size="9.9889">PA7</text>
		
			<line fill="none" stroke="#000000" stroke-width="2.415" stroke-linecap="round" stroke-linejoin="round" x1="210.808" y1="182.576" x2="189.564" y2="182.576"/>
		
			<line fill="none" stroke="#000000" stroke-width="2.415" stroke-linecap="round" stroke-linejoin="round" x1="210.808" y1="268.15" x2="189.564" y2="268.15"/>
		
			<line fill="none" stroke="#000000" stroke-width="2.415" stroke-linecap="round" stroke-linejoin="round" x1="210.808" y1="289.386" x2="189.564" y2="289.386"/>
		
			<line fill="none" stroke="#000000" stroke-width="2.415" stroke-linecap="round" stroke-linejoin="round" x1="210.808" y1="310.624" x2="189.564" y2="310.624"/>
		
			<line fill="none" stroke="#000000" stroke-width="2.415" stroke-linecap="round" stroke-linejoin="round" x1="210.808" y1="331.86" x2="189.564" y2="331.86"/>
		
			<line fill="none" stroke="#000000" stroke-width="2.415" stroke-linecap="round" stroke-linejoin="round" x1="210.808" y1="353.096" x2="189.564" y2="353.096"/>
		
			<line fill="none" stroke="#000000" stroke-width="2.415" stroke-linecap="round" stroke-linejoin="round" x1="210.808" y1="374.331" x2="189.564" y2="374.331"/>
		<text transform="matrix(1 0 0 1 165.8511 185.0134)" font-family="'ArialMT'" font-size="9.9889">E4</text>
		<text transform="matrix(1 0 0 1 165.0992 270.6901)" font-family="'ArialMT'" font-size="9.9889">C7</text>
		<text transform="matrix(1 0 0 1 165.0992 291.8737)" font-family="'ArialMT'" font-size="9.9889">C6</text>
		<text transform="matrix(1 0 0 1 165.0992 313.4811)" font-family="'ArialMT'" font-size="9.9889">C5</text>
		<text transform="matrix(1 0 0 1 192.855 328.5895)" font-family="'ArialMT'" font-size="6.9922">PWM</text>
		<text transform="matrix(1 0 0 1 192.855 307.2516)" font-family="'ArialMT'" font-size="6.9922">PWM</text>
		<text transform="matrix(1 0 0 1 192.855 286.0778)" font-family="'ArialMT'" font-size="6.9922">PWM</text>
		<text transform="matrix(1 0 0 1 192.855 605.6032)" font-family="'ArialMT'" font-size="6.9922">PWM</text>
		<text transform="matrix(1 0 0 1 192.855 584.4294)" font-family="'ArialMT'" font-size="6.9922">PWM</text>
		<text transform="matrix(1 0 0 1 165.0992 334.237)" font-family="'ArialMT'" font-size="9.9889">C4</text>
		<text transform="matrix(1 0 0 1 165.0992 355.8474)" font-family="'ArialMT'" font-size="9.9889">C3</text>
		<text transform="matrix(1 0 0 1 165.0992 377.028)" font-family="'ArialMT'" font-size="9.9889">C2</text>
		
			<line fill="none" stroke="#000000" stroke-width="2.415" stroke-linecap="round" stroke-linejoin="round" x1="210.882" y1="161.225" x2="189.64" y2="161.225"/>
		<text transform="matrix(1 0 0 1 165.8511 164.0788)" font-family="'ArialMT'" font-size="9.9889">E5</text>
		
			<line fill="none" stroke="#000000" stroke-width="2.415" stroke-linecap="round" stroke-linejoin="round" x1="210.808" y1="416.917" x2="189.564" y2="416.917"/>
		
			<line fill="none" stroke="#000000" stroke-width="2.415" stroke-linecap="round" stroke-linejoin="round" x1="210.808" y1="203.727" x2="189.564" y2="203.727"/>
		
			<line fill="none" stroke="#000000" stroke-width="2.415" stroke-linecap="round" stroke-linejoin="round" x1="210.808" y1="224.963" x2="189.564" y2="224.963"/>
		
			<line fill="none" stroke="#000000" stroke-width="2.415" stroke-linecap="round" stroke-linejoin="round" x1="210.808" y1="460.103" x2="189.564" y2="460.103"/>
		
			<line fill="none" stroke="#000000" stroke-width="2.415" stroke-linecap="round" stroke-linejoin="round" x1="210.808" y1="481.339" x2="189.564" y2="481.339"/>
		
			<line fill="none" stroke="#000000" stroke-width="2.415" stroke-linecap="round" stroke-linejoin="round" x1="210.808" y1="502.576" x2="189.564" y2="502.576"/>
		
			<line fill="none" stroke="#000000" stroke-width="2.415" stroke-linecap="round" stroke-linejoin="round" x1="210.808" y1="523.812" x2="189.564" y2="523.812"/>
		
			<line fill="none" stroke="#000000" stroke-width="2.415" stroke-linecap="round" stroke-linejoin="round" x1="210.808" y1="545.047" x2="189.564" y2="545.047"/>
		
			<line fill="none" stroke="#000000" stroke-width="2.415" stroke-linecap="round" stroke-linejoin="round" x1="210.808" y1="566.285" x2="189.564" y2="566.285"/>
		
			<line fill="none" stroke="#000000" stroke-width="2.415" stroke-linecap="round" stroke-linejoin="round" x1="210.808" y1="587.521" x2="189.564" y2="587.521"/>
		
			<line fill="none" stroke="#000000" stroke-width="2.415" stroke-linecap="round" stroke-linejoin="round" x1="210.808" y1="608.757" x2="189.564" y2="608.757"/>
		
			<line fill="none" stroke="#000000" stroke-width="2.415" stroke-linecap="round" stroke-linejoin="round" x1="0.811" y1="542.279" x2="22.053" y2="542.279"/>
		<text transform="matrix(1 0 0 1 165.0992 419.3542)" font-family="'ArialMT'" font-size="9.9889">C0</text>
		<text transform="matrix(1 0 0 1 165.8492 206.5358)" font-family="'ArialMT'" font-size="9.9889">E1</text>
		<text transform="matrix(1 0 0 1 165.8492 227.7184)" font-family="'ArialMT'" font-size="9.9889">E0</text>
		<text transform="matrix(1 0 0 1 164.2877 462.3766)" font-family="'ArialMT'" font-size="9.9889">D7</text>
		<text transform="matrix(1 0 0 1 164.2877 483.988)" font-family="'ArialMT'" font-size="9.9889">D6</text>
		<text transform="matrix(1 0 0 1 164.2877 504.7458)" font-family="'ArialMT'" font-size="9.9889">D5</text>
		<text transform="matrix(1 0 0 1 164.2877 526.3522)" font-family="'ArialMT'" font-size="9.9889">D4</text>
		<text transform="matrix(1 0 0 1 164.2877 547.5349)" font-family="'ArialMT'" font-size="9.9889">D3</text>
		<text transform="matrix(1 0 0 1 164.2877 569.1432)" font-family="'ArialMT'" font-size="9.9889">D2</text>
		<text transform="matrix(1 0 0 1 193.8472 542.8239)" font-family="'ArialMT'" font-size="6.9922">TX</text>
		<text transform="matrix(1 0 0 1 193.8472 563.2224)" font-family="'ArialMT'" font-size="6.9922">RX</text>
		<text transform="matrix(1 0 0 1 164.2877 589.8991)" font-family="'ArialMT'" font-size="9.9889">D1</text>
		<text transform="matrix(1 0 0 1 164.2877 611.5085)" font-family="'ArialMT'" font-size="9.9889">D0</text>
		<text transform="matrix(1 0 0 1 32.2764 544.944)" font-family="'ArialMT'" font-size="9.9889">B7</text>
		<polygon points="203.49,537.928 208.197,540.644 203.49,543.361 		"/>
		<polygon points="208.197,563.973 203.49,561.25 208.197,558.535 		"/>
		
			<line fill="none" stroke="#000000" stroke-width="2.415" stroke-linecap="round" stroke-linejoin="round" x1="210.882" y1="395.565" x2="189.64" y2="395.565"/>
		<text transform="matrix(1 0 0 1 165.0992 398.4196)" font-family="'ArialMT'" font-size="9.9889">C1</text>
		<rect id="connector53pin" x="1.17" y="112.962" fill="none" width="10.485" height="2.1"/>
		<rect x="1.17" y="112.962" fill="none" width="1.994" height="2.1"/>
		<rect id="connector52pin" x="0.743" y="347.76" fill="none" width="10.485" height="2.1"/>
		<rect x="0.743" y="347.76" fill="none" width="1.989" height="2.1"/>
		<rect id="connector51pin" x="0.815" y="369.111" fill="none" width="10.488" height="2.098"/>
		<rect x="0.815" y="369.111" fill="none" width="1.992" height="2.098"/>
		<rect id="connector50pin" x="0.743" y="390.96" fill="none" width="10.485" height="2.102"/>
		<rect x="0.743" y="390.96" fill="none" width="1.989" height="2.102"/>
		<rect id="connector49pin" x="0.815" y="412.312" fill="none" width="10.488" height="2.098"/>
		<rect x="0.815" y="412.312" fill="none" width="1.992" height="2.098"/>
		<rect id="connector48pin" x="0.815" y="433.549" fill="none" width="10.488" height="2.099"/>
		<rect x="0.815" y="433.549" fill="none" width="1.992" height="2.099"/>
		<rect id="connector47pin" x="0.743" y="455.759" fill="none" width="10.485" height="2.1"/>
		<rect x="0.743" y="455.759" fill="none" width="1.989" height="2.1"/>
		<rect id="connector46pin" x="0.815" y="477.11" fill="none" width="10.488" height="2.1"/>
		<rect x="0.815" y="477.11" fill="none" width="1.992" height="2.1"/>
		<rect id="connector45pin" x="0.815" y="498.351" fill="none" width="10.488" height="2.098"/>
		<rect x="0.815" y="498.351" fill="none" width="1.992" height="2.098"/>
		<rect id="connector44pin" x="200.394" y="160.006" fill="none" width="10.486" height="2.102"/>
		<rect x="208.89" y="160.006" fill="none" width="1.99" height="2.102"/>
		<rect id="connector43pin" x="200.318" y="181.357" fill="none" width="10.488" height="2.099"/>
		<rect x="208.814" y="181.357" fill="none" width="1.992" height="2.099"/>
		<rect id="connector42pin" x="105.016" y="7.711" fill="none" width="2.1" height="10.487"/>
		<rect x="105.016" y="7.711" fill="none" width="2.1" height="1.995"/>
		<rect id="connector41pin" x="0.815" y="562.42" fill="none" width="10.488" height="2.101"/>
		<rect x="0.815" y="562.42" fill="none" width="1.992" height="2.101"/>
		<rect id="connector40pin" x="0.815" y="583.657" fill="none" width="10.488" height="2.099"/>
		<rect x="0.815" y="583.657" fill="none" width="1.992" height="2.099"/>
		<rect id="connector39pin" x="0.815" y="604.893" fill="none" width="10.488" height="2.103"/>
		<rect x="0.815" y="604.893" fill="none" width="1.992" height="2.103"/>
		<rect id="connector38pin" x="0.815" y="626.13" fill="none" width="10.488" height="2.104"/>
		<rect x="0.815" y="626.13" fill="none" width="1.992" height="2.104"/>
		<rect id="connector37pin" x="0.815" y="647.367" fill="none" width="10.488" height="2.099"/>
		<rect x="0.815" y="647.367" fill="none" width="1.992" height="2.099"/>
		<rect id="connector36pin" x="0.815" y="668.602" fill="none" width="10.488" height="2.103"/>
		<rect x="0.815" y="668.602" fill="none" width="1.992" height="2.103"/>
		<rect id="connector35pin" x="0.815" y="689.839" fill="none" width="10.488" height="2.103"/>
		<rect x="0.815" y="689.839" fill="none" width="1.992" height="2.103"/>
		<rect id="connector34pin" x="200.318" y="117.545" fill="none" width="10.488" height="2.103"/>
		<rect x="208.814" y="117.545" fill="none" width="1.992" height="2.103"/>
		<rect id="connector33pin" x="200.318" y="138.781" fill="none" width="10.488" height="2.104"/>
		<rect x="208.814" y="138.781" fill="none" width="1.992" height="2.104"/>
		<rect id="connector32pin" x="105.016" y="749.227" fill="none" width="2.1" height="10.483"/>
		<rect x="105.016" y="757.722" fill="none" width="2.1" height="1.99"/>
		<rect id="connector31pin" x="1.17" y="91.362" fill="none" width="10.485" height="2.1"/>
		<rect x="1.17" y="91.362" fill="none" width="1.994" height="2.1"/>
		<rect id="connector30pin" x="1.246" y="154.566" fill="none" width="10.486" height="2.1"/>
		<polygon fill="none" points="1.246,154.566 3.24,154.566 3.24,157.666 1.246,156.666 		"/>
		<rect id="connector29pin" x="1.246" y="175.805" fill="none" width="10.486" height="2.101"/>
		<rect x="1.246" y="175.805" fill="none" width="1.994" height="2.101"/>
		<rect id="connector28pin" x="1.246" y="196.701" fill="none" width="10.486" height="2.104"/>
		<rect x="1.246" y="196.701" fill="none" width="1.994" height="2.104"/>
		<rect id="connector27pin" x="1.246" y="218.272" fill="none" width="10.486" height="2.101"/>
		<rect x="1.246" y="218.272" fill="none" width="1.994" height="2.101"/>
		<rect id="connector26pin" x="1.246" y="239.899" fill="none" width="10.486" height="2.101"/>
		<rect x="1.246" y="239.899" fill="none" width="1.994" height="2.101"/>
		<rect id="connector25pin" x="1.246" y="261.502" fill="none" width="10.486" height="2.102"/>
		<rect x="1.246" y="261.502" fill="none" width="1.994" height="2.102"/>
		<rect id="connector24pin" x="1.246" y="283.104" fill="none" width="10.486" height="2.101"/>
		<rect x="1.246" y="283.104" fill="none" width="1.994" height="2.101"/>
		<rect id="connector23pin" x="1.246" y="304.701" fill="none" width="10.486" height="2.104"/>
		<rect x="1.246" y="304.701" fill="none" width="1.994" height="2.104"/>
		<rect id="connector22pin" x="1.275" y="70.505" fill="none" width="10.487" height="2.099"/>
		<rect x="1.275" y="70.505" fill="none" width="1.994" height="2.099"/>
		<rect id="connector21pin" x="105.016" y="749.227" fill="none" width="2.1" height="10.483"/>
		<rect x="105.016" y="757.722" fill="none" width="2.1" height="1.99"/>
		<rect id="connector20pin" x="105.016" y="7.711" fill="none" width="2.1" height="10.487"/>
		<rect x="105.016" y="7.711" fill="none" width="2.1" height="1.995"/>
		<rect id="connector19pin" x="200.318" y="266.934" fill="none" width="10.488" height="2.104"/>
		<rect x="208.814" y="266.934" fill="none" width="1.992" height="2.104"/>
		<rect id="connector18pin" x="200.318" y="288.171" fill="none" width="10.488" height="2.101"/>
		<rect x="208.814" y="288.171" fill="none" width="1.992" height="2.101"/>
		<rect id="connector17pin" x="200.318" y="309.405" fill="none" width="10.488" height="2.104"/>
		<rect x="208.814" y="309.405" fill="none" width="1.992" height="2.104"/>
		<rect id="connector16pin" x="200.318" y="330.643" fill="none" width="10.488" height="2.101"/>
		<rect x="208.814" y="330.643" fill="none" width="1.992" height="2.101"/>
		<rect id="connector15pin" x="200.318" y="351.876" fill="none" width="10.488" height="2.104"/>
		<rect x="208.814" y="351.876" fill="none" width="1.992" height="2.104"/>
		<rect id="connector14pin" x="200.318" y="373.112" fill="none" width="10.488" height="2.102"/>
		<rect x="208.814" y="373.112" fill="none" width="1.992" height="2.102"/>
		<rect id="connector13pin" x="200.394" y="394.347" fill="none" width="10.486" height="2.1"/>
		<rect x="208.89" y="394.347" fill="none" width="1.99" height="2.1"/>
		<rect id="connector12pin" x="200.318" y="415.698" fill="none" width="10.488" height="2.099"/>
		<rect x="208.814" y="415.698" fill="none" width="1.992" height="2.099"/>
		<rect id="connector11pin" x="200.318" y="202.511" fill="none" width="10.488" height="2.097"/>
		<rect x="208.814" y="202.511" fill="none" width="1.992" height="2.097"/>
		<rect id="connector10pin" x="200.318" y="223.745" fill="none" width="10.488" height="2.103"/>
		<rect x="208.814" y="223.745" fill="none" width="1.992" height="2.103"/>
		<rect id="connector9pin" x="200.318" y="458.885" fill="none" width="10.488" height="2.099"/>
		<rect x="208.814" y="458.885" fill="none" width="1.992" height="2.099"/>
		<rect id="connector8pin" x="200.318" y="480.122" fill="none" width="10.488" height="2.101"/>
		<rect x="208.814" y="480.122" fill="none" width="1.992" height="2.101"/>
		<rect id="connector7pin" x="200.318" y="501.357" fill="none" width="10.488" height="2.103"/>
		<rect x="208.814" y="501.357" fill="none" width="1.992" height="2.103"/>
		<rect id="connector6pin" x="200.318" y="522.595" fill="none" width="10.488" height="2.104"/>
		<rect x="208.814" y="522.595" fill="none" width="1.992" height="2.104"/>
		<rect id="connector5pin" x="200.318" y="543.832" fill="none" width="10.488" height="2.101"/>
		<rect x="208.814" y="543.832" fill="none" width="1.992" height="2.101"/>
		<rect id="connector4pin" x="200.318" y="565.066" fill="none" width="10.488" height="2.103"/>
		<rect x="208.814" y="565.066" fill="none" width="1.992" height="2.103"/>
		<rect id="connector3pin_1_" x="200.318" y="586.304" fill="none" width="10.488" height="2.101"/>
		<rect x="208.814" y="586.304" fill="none" width="1.992" height="2.101"/>
		<rect id="connector2pin_1_" x="200.318" y="607.537" fill="none" width="10.488" height="2.104"/>
		<rect x="208.814" y="607.537" fill="none" width="1.992" height="2.104"/>
		<rect id="connector1pin_1_" x="0.812" y="541.061" fill="none" width="10.487" height="2.102"/>
		<rect x="0.811" y="541.061" fill="none" width="1.992" height="2.102"/>
		<rect id="connector0pin_1_" x="105.016" y="749.227" fill="none" width="2.1" height="10.483"/>
		<rect x="105.016" y="757.722" fill="none" width="2.1" height="1.99"/>
	</g>
</g>
<g transform="translate(281.038,617.613)">
	<g id="schematicLabel_2_">
		<text transform="matrix(1 0 0 1 5.798340e-04 6.6751)" font-family="'ArialMT'" font-size="9">C1</text>
		<text transform="matrix(1 0 0 1 5.798340e-04 15.0374)" font-family="'ArialMT'" font-size="9">100nF</text>
	</g>
</g>
<g transform="translate(242.672,673.579)">
	<g transform="matrix(0,-1,1,0,0,0)">
		<g id="schematic_2_">
			<g>
				
					<rect id="connector0pin_2_" x="9.882" y="36.21" transform="matrix(-2.547107e-06 -1 1 -2.547107e-06 -20.2207 53.5741)" width="13.589" height="1.375"/>
				
					<rect id="connector1pin_2_" x="9.888" y="6.5" transform="matrix(-2.547107e-06 -1 1 -2.547107e-06 9.4893 23.864)" width="13.578" height="1.375"/>
				
					<rect id="connector1terminal_1_" x="16.267" y="0.026" transform="matrix(-2.547107e-06 -1 1 -2.547107e-06 16.2664 17.0674)" width="0.799" height="0.75"/>
				
					<rect id="connector0terminal_1_" x="16.267" y="43.058" transform="matrix(-2.547107e-06 -1 1 -2.547107e-06 -26.7658 60.0997)" width="0.8" height="0.75"/>
			</g>
			<line fill="none" stroke="#000000" stroke-width="2.4" stroke-linecap="round" x1="16.616" y1="0.852" x2="16.616" y2="18.477"/>
			<line fill="none" stroke="#000000" stroke-width="2.4" stroke-linecap="round" x1="1.366" y1="18.852" x2="31.366" y2="18.852"/>
			<line fill="none" stroke="#000000" stroke-width="2.4" stroke-linecap="round" x1="1.366" y1="25.227" x2="31.366" y2="25.227"/>
			
				<line fill="none" stroke="#000000" stroke-width="2.4" stroke-linecap="round" x1="16.616" y1="26.102" x2="16.616" y2="43.227"/>
		</g>
	</g>
</g>
<g transform="translate(484.928,528.628)">
	<g id="schematicLabel_3_">
		<text transform="matrix(1 0 0 1 7.019043e-04 6.6747)" font-family="'ArialMT'" font-size="9">C2</text>
		<text transform="matrix(1 0 0 1 7.019043e-04 15.037)" font-family="'ArialMT'" font-size="9">100nF</text>
	</g>
</g>
<g transform="translate(484.928,590.21)">
	<g transform="matrix(-1,0,0,-1,0,0)">
		<g id="schematic_3_">
			<g>
				<rect id="connector0pin_3_" x="15.989" y="30.102" width="1.375" height="13.591"/>
				<rect id="connector1pin_3_" x="15.989" y="0.398" width="1.375" height="13.578"/>
				<rect id="connector1terminal_2_" x="16.291" y="0" width="0.75" height="0.799"/>
				<rect id="connector0terminal_2_" x="16.291" y="43.032" width="0.75" height="0.8"/>
			</g>
			<line fill="none" stroke="#000000" stroke-width="2.4" stroke-linecap="round" x1="16.616" y1="0.852" x2="16.616" y2="18.477"/>
			<line fill="none" stroke="#000000" stroke-width="2.4" stroke-linecap="round" x1="1.366" y1="18.852" x2="31.366" y2="18.852"/>
			<line fill="none" stroke="#000000" stroke-width="2.4" stroke-linecap="round" x1="1.366" y1="25.227" x2="31.366" y2="25.227"/>
			
				<line fill="none" stroke="#000000" stroke-width="2.4" stroke-linecap="round" x1="16.616" y1="26.102" x2="16.616" y2="43.227"/>
		</g>
	</g>
</g>
<g transform="translate(281.435,564.911)">
	<g id="schematicLabel_4_">
		<text transform="matrix(1 0 0 1 5.493164e-04 6.6749)" font-family="'ArialMT'" font-size="9">C3</text>
		<text transform="matrix(1 0 0 1 5.493164e-04 15.0372)" font-family="'ArialMT'" font-size="9">1 F</text>
	</g>
</g>
<g transform="translate(287.051,588.127)">
	<g transform="matrix(0,1,-1,0,0,0)">
		<g id="schematic_4_">
			<g>
				
					<rect id="connector0pin_4_" x="9.882" y="36.208" transform="matrix(2.578893e-06 1 -1 2.578893e-06 53.5719 20.2184)" width="13.589" height="1.375"/>
				
					<rect id="connector1pin_4_" x="9.888" y="6.499" transform="matrix(2.578893e-06 1 -1 2.578893e-06 23.8631 -9.4902)" width="13.578" height="1.375"/>
				
					<rect id="connector1terminal_3_" x="16.268" y="0.024" transform="matrix(2.578893e-06 1 -1 2.578893e-06 17.0655 -16.2683)" width="0.799" height="0.75"/>
				
					<rect id="connector0terminal_3_" x="16.267" y="43.056" transform="matrix(2.578893e-06 1 -1 2.578893e-06 60.0983 26.7643)" width="0.8" height="0.75"/>
			</g>
			<line fill="none" stroke="#000000" stroke-width="2.4" stroke-linecap="round" x1="16.616" y1="0.851" x2="16.616" y2="18.476"/>
			<line fill="none" stroke="#000000" stroke-width="2.4" stroke-linecap="round" x1="1.366" y1="18.851" x2="31.366" y2="18.851"/>
			
				<line fill="none" stroke="#000000" stroke-width="2.4" stroke-linecap="round" x1="16.616" y1="24.615" x2="16.616" y2="43.226"/>
			<line fill="none" x1="24.688" y1="11.927" x2="31.313" y2="11.927"/>
			<line fill="none" x1="28" y1="8.615" x2="28" y2="15.24"/>
			<path fill="none" stroke="#000000" stroke-width="2.4" stroke-linecap="round" d="M1.732,29.246
				c4.079-3.221,9.229-5.143,14.83-5.143c5.493,0,10.559,1.851,14.6,4.963"/>
		</g>
	</g>
</g>
<g transform="translate(433.425,526.525)">
	<g id="schematicLabel_5_">
		<text transform="matrix(1 0 0 1 7.934570e-04 6.6752)" font-family="'ArialMT'" font-size="9">C4</text>
		<text transform="matrix(1 0 0 1 7.934570e-04 15.0375)" font-family="'ArialMT'" font-size="9">1 F</text>
	</g>
</g>
<g transform="translate(400.675,544.125)">
	<g transform="matrix(1,0,0,1,0,0)">
		<g id="schematic_5_">
			<g>
				<rect id="connector0pin_5_" x="15.99" y="30.102" width="1.375" height="13.591"/>
				<rect id="connector1pin_5_" x="15.99" y="0.398" width="1.375" height="13.576"/>
				<rect id="connector1terminal_4_" x="16.293" width="0.75" height="0.799"/>
				<rect id="connector0terminal_4_" x="16.293" y="43.032" width="0.75" height="0.8"/>
			</g>
			<line fill="none" stroke="#000000" stroke-width="2.4" stroke-linecap="round" x1="16.617" y1="0.852" x2="16.617" y2="18.477"/>
			<line fill="none" stroke="#000000" stroke-width="2.4" stroke-linecap="round" x1="1.367" y1="18.852" x2="31.367" y2="18.852"/>
			
				<line fill="none" stroke="#000000" stroke-width="2.4" stroke-linecap="round" x1="16.617" y1="24.616" x2="16.617" y2="43.227"/>
			<line fill="none" x1="24.688" y1="11.928" x2="31.313" y2="11.928"/>
			<line fill="none" x1="28.001" y1="8.616" x2="28.001" y2="15.241"/>
			<path fill="none" stroke="#000000" stroke-width="2.4" stroke-linecap="round" d="M1.732,29.247
				c4.079-3.221,9.229-5.145,14.83-5.145c5.495,0,10.56,1.853,14.601,4.965"/>
		</g>
	</g>
</g>
<g transform="translate(432.214,150.42)">
	<g id="schematicLabel_6_">
		<text transform="matrix(1 0 0 1 8.544922e-04 6.6747)" font-family="'ArialMT'" font-size="9">U3</text>
	</g>
</g>
<g transform="translate(432.215,216.88)">
	<g transform="matrix(-1,0,0,-1,0,0)">
		<g id="schematic_6_">
			
				<line id="connector0pin_6_" fill="none" stroke="#000000" stroke-width="1.6044" stroke-linecap="round" stroke-linejoin="round" x1="18.651" y1="21.991" x2="0.802" y2="21.991"/>
			<rect id="connector0terminal_5_" x="-0.001" y="21.056" fill="none" width="0.803" height="1.616"/>
			
				<line id="connector1pin_6_" fill="none" stroke="#000000" stroke-width="1.6044" stroke-linecap="round" stroke-linejoin="round" x1="36.828" y1="57.66" x2="36.828" y2="39.085"/>
			<rect id="connector1terminal_5_" x="36.026" y="57.342" fill="none" width="1.604" height="0.808"/>
			
				<line id="connector2pin_2_" fill="none" stroke="#000000" stroke-width="1.6044" stroke-linecap="round" stroke-linejoin="round" x1="73.257" y1="21.991" x2="54.806" y2="21.991"/>
			<rect id="connector2terminal_1_" x="72.999" y="21.056" fill="none" width="0.802" height="1.616"/>
			
				<rect id="rect17" x="19.307" y="7.13" fill="none" stroke="#000000" stroke-width="1.6044" stroke-linecap="round" stroke-linejoin="round" width="35.262" height="31.463"/>
			<path id="text3320" d="M21.311,19.522h0.635v4.71h-0.635V19.522 M23.204,19.522h0.853l2.074,3.94v-3.94h0.614v4.71h-0.854
				l-2.073-3.94v3.94h-0.614V19.522"/>
			<path id="text3324" d="M41.715,19.862c-0.459,0-0.825,0.172-1.097,0.517c-0.27,0.345-0.404,0.815-0.404,1.41
				c0,0.593,0.135,1.062,0.404,1.407c0.271,0.345,0.637,0.518,1.097,0.518s0.823-0.173,1.091-0.518
				c0.27-0.345,0.404-0.814,0.404-1.407c0-0.595-0.135-1.065-0.404-1.41C42.538,20.034,42.175,19.862,41.715,19.862 M41.715,19.344
				c0.656,0,1.181,0.222,1.573,0.666c0.393,0.442,0.589,1.035,0.589,1.779c0,0.743-0.196,1.336-0.589,1.779
				c-0.393,0.442-0.917,0.663-1.573,0.663c-0.658,0-1.184-0.221-1.579-0.663c-0.393-0.441-0.589-1.035-0.589-1.779
				c0-0.744,0.196-1.337,0.589-1.779C40.531,19.567,41.057,19.344,41.715,19.344 M44.796,19.429h0.636v2.862
				c0,0.504,0.091,0.869,0.272,1.091c0.182,0.221,0.476,0.332,0.884,0.332c0.405,0,0.699-0.11,0.88-0.332
				c0.182-0.223,0.272-0.587,0.272-1.091v-2.862h0.636v2.94c0,0.614-0.151,1.078-0.454,1.391c-0.301,0.313-0.746,0.47-1.335,0.47
				c-0.591,0-1.039-0.157-1.341-0.47c-0.301-0.313-0.451-0.777-0.451-1.391L44.796,19.429 M48.919,19.429h3.958v0.537h-1.661v4.174
				H50.58v-4.174h-1.661V19.429"/>
			<path id="text2390" d="M20.361,0.734h3.009v0.271l-1.699,4.438H21.01l1.6-4.174h-2.247L20.361,0.734 M25.961,3.208
				c-0.301,0-0.538,0.081-0.711,0.243c-0.172,0.162-0.257,0.385-0.257,0.669c0,0.284,0.085,0.507,0.257,0.668
				c0.173,0.162,0.41,0.243,0.711,0.243s0.538-0.081,0.712-0.243c0.173-0.164,0.26-0.387,0.26-0.668c0-0.284-0.087-0.507-0.26-0.669
				C26.501,3.289,26.264,3.208,25.961,3.208 M25.328,2.937c-0.271-0.067-0.483-0.195-0.637-0.382
				c-0.149-0.187-0.226-0.416-0.226-0.685c0-0.376,0.133-0.674,0.397-0.893c0.268-0.219,0.633-0.328,1.097-0.328
				c0.466,0,0.832,0.109,1.097,0.328c0.267,0.219,0.398,0.516,0.398,0.893c0,0.269-0.076,0.498-0.229,0.685
				c-0.149,0.187-0.359,0.314-0.63,0.382c0.305,0.071,0.542,0.211,0.711,0.419c0.171,0.208,0.257,0.463,0.257,0.764
				c0,0.456-0.139,0.807-0.417,1.05c-0.274,0.244-0.671,0.366-1.188,0.366c-0.516,0-0.912-0.122-1.19-0.366
				c-0.274-0.244-0.414-0.594-0.414-1.05c0-0.301,0.086-0.555,0.258-0.764C24.785,3.148,25.024,3.008,25.328,2.937 M25.097,1.93
				c0,0.244,0.075,0.434,0.227,0.571c0.151,0.137,0.364,0.205,0.639,0.205c0.271,0,0.484-0.068,0.637-0.205
				c0.154-0.137,0.231-0.327,0.231-0.571c0-0.244-0.077-0.435-0.231-0.571c-0.151-0.137-0.364-0.205-0.637-0.205
				c-0.273,0-0.486,0.068-0.639,0.205C25.172,1.496,25.097,1.686,25.097,1.93 M30.611,2.905c0.303,0.065,0.538,0.201,0.708,0.407
				c0.172,0.206,0.257,0.46,0.257,0.763c0,0.465-0.158,0.825-0.477,1.079c-0.317,0.254-0.77,0.382-1.354,0.382
				c-0.196,0-0.398-0.021-0.607-0.06c-0.207-0.038-0.421-0.096-0.643-0.173V4.688c0.176,0.103,0.368,0.181,0.577,0.233
				C29.281,4.974,29.5,5,29.728,5c0.397,0,0.699-0.079,0.906-0.236c0.208-0.158,0.312-0.387,0.312-0.688
				c0-0.277-0.098-0.494-0.291-0.65c-0.192-0.158-0.461-0.236-0.807-0.236h-0.545V2.665h0.57c0.312,0,0.55-0.062,0.715-0.186
				c0.165-0.126,0.247-0.307,0.247-0.542c0-0.242-0.086-0.427-0.257-0.555c-0.169-0.13-0.412-0.196-0.73-0.196
				c-0.173,0-0.358,0.019-0.558,0.057c-0.198,0.038-0.417,0.097-0.654,0.177V0.851c0.24-0.067,0.465-0.118,0.673-0.151
				c0.211-0.034,0.41-0.05,0.597-0.05c0.479,0,0.859,0.11,1.141,0.331c0.28,0.219,0.42,0.515,0.42,0.89
				c0,0.261-0.074,0.481-0.223,0.663C31.096,2.712,30.885,2.836,30.611,2.905 M34.697,2.905C35,2.97,35.236,3.106,35.406,3.312
				c0.171,0.206,0.257,0.46,0.257,0.763c0,0.465-0.159,0.825-0.478,1.079c-0.317,0.254-0.769,0.382-1.354,0.382
				c-0.196,0-0.399-0.021-0.608-0.06c-0.207-0.038-0.421-0.096-0.643-0.173V4.688c0.176,0.103,0.368,0.181,0.577,0.233
				C33.367,4.973,33.586,5,33.814,5c0.397,0,0.699-0.079,0.906-0.236c0.209-0.158,0.313-0.387,0.313-0.688
				c0-0.277-0.099-0.494-0.292-0.65c-0.192-0.158-0.46-0.236-0.806-0.236H33.39V2.665h0.57c0.312,0,0.55-0.062,0.715-0.186
				c0.165-0.126,0.247-0.307,0.247-0.542c0-0.242-0.085-0.427-0.257-0.555c-0.169-0.13-0.412-0.196-0.729-0.196
				c-0.174,0-0.358,0.019-0.559,0.057c-0.198,0.038-0.416,0.097-0.654,0.177V0.851c0.24-0.067,0.465-0.118,0.674-0.151
				c0.211-0.034,0.409-0.05,0.596-0.05c0.479,0,0.86,0.11,1.141,0.331c0.28,0.219,0.42,0.515,0.42,0.89
				c0,0.261-0.074,0.481-0.223,0.663C35.183,2.712,34.972,2.836,34.697,2.905"/>
			<path id="text3328" d="M33.209,36.317v-1.265h-1.034v-0.523h1.661v2.022c-0.244,0.175-0.514,0.307-0.809,0.397
				c-0.295,0.088-0.608,0.133-0.943,0.133c-0.73,0-1.303-0.215-1.717-0.644c-0.412-0.432-0.617-1.031-0.617-1.798
				c0-0.77,0.205-1.369,0.617-1.798c0.414-0.431,0.985-0.647,1.717-0.647c0.306,0,0.595,0.038,0.868,0.114
				c0.275,0.076,0.529,0.188,0.762,0.334v0.678c-0.234-0.2-0.482-0.35-0.746-0.451c-0.263-0.101-0.54-0.151-0.83-0.151
				c-0.572,0-1.003,0.161-1.291,0.482c-0.286,0.322-0.43,0.802-0.43,1.439c0,0.635,0.144,1.114,0.43,1.435
				c0.288,0.322,0.719,0.483,1.291,0.483c0.225,0,0.423-0.019,0.6-0.057C32.911,36.46,33.069,36.399,33.209,36.317 M34.995,32.278
				h0.853l2.075,3.94v-3.94h0.614v4.71h-0.852l-2.076-3.94v3.94h-0.613L34.995,32.278 M40.429,32.802v3.663h0.765
				c0.645,0,1.117-0.147,1.416-0.442c0.301-0.294,0.451-0.759,0.451-1.395c0-0.631-0.15-1.092-0.451-1.385
				c-0.299-0.294-0.771-0.442-1.416-0.442L40.429,32.802 M39.796,32.278h1.301c0.906,0,1.572,0.19,1.996,0.571
				c0.424,0.379,0.636,0.972,0.636,1.779c0,0.812-0.213,1.408-0.639,1.789c-0.426,0.38-1.09,0.571-1.993,0.571h-1.301V32.278"/>
		</g>
	</g>
</g>
<g transform="translate(1047.78,483.984)">
	<g id="schematicLabel_7_">
		<text transform="matrix(1 0 0 1 7.324219e-04 6.6752)" font-family="'ArialMT'" font-size="9">U4</text>
	</g>
</g>
<g transform="translate(938.179,492.784)">
	<g id="schematic_7_">
		
			<rect x="22.68" y="1.08" fill="none" stroke="#000000" stroke-width="2.16" stroke-linecap="round" stroke-linejoin="round" width="86.4" height="172.8"/>
		<text id="label_1_" transform="matrix(1 0 0 1 24.5666 91.0803)" font-family="'ArialMT'" font-size="18.36">SD CARD</text>
		<circle cx="95.76" cy="14.4" r="10.8"/>
		<text transform="matrix(1 0 0 1 89.7131 21.9601)" fill="#FFFFFF" font-family="'Arial-BoldMT'" font-size="19.8">?</text>
		
			<line fill="none" stroke="#000000" stroke-width="2.16" stroke-linecap="round" stroke-linejoin="round" x1="1.08" y1="22.68" x2="21.6" y2="22.68"/>
		<rect id="connector0pin_7_" x="0" y="21.6" fill="none" width="21.6" height="2.16"/>
		<rect id="connector0terminal_6_" x="0" y="21.6" fill="none" width="2.16" height="2.16"/>
		<text id="label0_1_" transform="matrix(1 0 0 1 28.0803 25.2004)" font-family="'ArialMT'" font-size="9.36">1</text>
		
			<line fill="none" stroke="#000000" stroke-width="2.16" stroke-linecap="round" stroke-linejoin="round" x1="1.08" y1="44.28" x2="21.6" y2="44.28"/>
		<rect id="connector1pin_7_" x="0" y="43.2" fill="none" width="21.6" height="2.158"/>
		<rect id="connector1terminal_6_" x="0" y="43.2" fill="none" width="2.16" height="2.158"/>
		<text id="label1_1_" transform="matrix(1 0 0 1 28.0803 46.8)" font-family="'ArialMT'" font-size="9.36">2</text>
		
			<line fill="none" stroke="#000000" stroke-width="2.16" stroke-linecap="round" stroke-linejoin="round" x1="1.08" y1="65.88" x2="21.6" y2="65.88"/>
		<rect id="connector2pin_3_" x="0" y="64.8" fill="none" width="21.6" height="2.16"/>
		<rect id="connector2terminal_2_" x="0" y="64.8" fill="none" width="2.16" height="2.16"/>
		<text id="label2_1_" transform="matrix(1 0 0 1 28.0803 68.3996)" font-family="'ArialMT'" font-size="9.36">3</text>
		
			<line fill="none" stroke="#000000" stroke-width="2.16" stroke-linecap="round" stroke-linejoin="round" x1="1.08" y1="87.48" x2="21.6" y2="87.48"/>
		<rect id="connector3pin_2_" x="0" y="86.4" fill="none" width="21.6" height="2.16"/>
		<rect id="connector3terminal_1_" x="0" y="86.4" fill="none" width="2.16" height="2.16"/>
		<text id="label3_1_" transform="matrix(1 0 0 1 28.0803 90.0002)" font-family="'ArialMT'" font-size="9.36">4</text>
		
			<line fill="none" stroke="#000000" stroke-width="2.16" stroke-linecap="round" stroke-linejoin="round" x1="1.08" y1="109.08" x2="21.6" y2="109.08"/>
		<rect id="connector4pin_1_" x="0" y="108" fill="none" width="21.6" height="2.16"/>
		<rect id="connector4terminal" x="0" y="108" fill="none" width="2.16" height="2.16"/>
		<text id="label4" transform="matrix(1 0 0 1 28.0803 111.5998)" font-family="'ArialMT'" font-size="9.36">5</text>
		
			<line fill="none" stroke="#000000" stroke-width="2.16" stroke-linecap="round" stroke-linejoin="round" x1="1.08" y1="130.68" x2="21.6" y2="130.68"/>
		<rect id="connector5pin_1_" x="0" y="129.6" fill="none" width="21.6" height="2.16"/>
		<rect id="connector5terminal" x="0" y="129.6" fill="none" width="2.16" height="2.16"/>
		<text id="label5" transform="matrix(1 0 0 1 28.0803 133.2004)" font-family="'ArialMT'" font-size="9.36">6</text>
		
			<line fill="none" stroke="#000000" stroke-width="2.16" stroke-linecap="round" stroke-linejoin="round" x1="1.08" y1="152.28" x2="21.6" y2="152.28"/>
		<rect id="connector6pin_1_" x="0" y="151.2" fill="none" width="21.6" height="2.158"/>
		<rect id="connector6terminal" x="0" y="151.2" fill="none" width="2.16" height="2.158"/>
		<text id="label6" transform="matrix(1 0 0 1 28.0803 154.8)" font-family="'ArialMT'" font-size="9.36">7</text>
	</g>
</g>
<g transform="translate(1022.67,58.2805)">
	<g id="schematicLabel_8_">
		<text transform="matrix(1 0 0 1 0.0014 6.6746)" font-family="'ArialMT'" font-size="9">LED1</text>
		<text transform="matrix(1 0 0 1 0.0014 15.0378)" font-family="'ArialMT'" font-size="9">red</text>
	</g>
</g>
<g transform="translate(986.107,75.8805)">
	<g id="schematic_8_">
		<rect id="connector1terminal_7_" x="10.633" y="0.525" width="0.207" height="0.208"/>
		<rect id="connector0terminal_7_" x="10.648" y="64.314" width="0.209" height="0.207"/>
		<rect id="connector1pin_8_" x="10.029" y="0.421" width="1.375" height="10.339"/>
		<rect id="connector0pin_8_" x="10.029" y="53" width="1.375" height="11.767"/>
		<line fill="none" stroke="#000000" stroke-width="2.4" stroke-linecap="round" x1="10.752" y1="41.171" x2="10.752" y2="64.123"/>
		<line fill="none" stroke="#000000" stroke-width="2.4" stroke-linecap="round" x1="21.172" y1="41.683" x2="0.334" y2="41.683"/>
		<line fill="none" stroke="#000000" stroke-width="2.4" stroke-linecap="round" x1="10.752" y1="0.731" x2="10.752" y2="22.393"/>
		<polygon fill="none" stroke="#000000" stroke-width="2.4" stroke-linecap="round" stroke-linejoin="round" points="10.752,41.638 
			5.486,32.515 0.219,23.393 10.752,23.393 21.285,23.393 16.021,32.515 		"/>
		<path d="M27.775,47.148l2.559-2.037l1.465-1.169l1.092-0.871l3.461,9.58L27.775,47.148L27.775,47.148z"/>
		<path d="M21.227,52.138l2.557-2.039l1.463-1.168l1.092-0.87l3.471,9.581L21.227,52.138L21.227,52.138z"/>
		<line fill="none" stroke="#000000" stroke-width="2.4" stroke-linecap="round" x1="24.281" y1="37.577" x2="32.949" y2="48.061"/>
		<line fill="none" stroke="#000000" stroke-width="2.4" stroke-linecap="round" x1="19.949" y1="45.54" x2="25.516" y2="52.274"/>
	</g>
</g>
<g transform="translate(1026.68,150.268)">
	<g id="schematicLabel_9_">
		<text transform="matrix(1 0 0 1 0.0011 6.6754)" font-family="'ArialMT'" font-size="9">LED2</text>
		<text transform="matrix(1 0 0 1 0.0011 15.0377)" font-family="'ArialMT'" font-size="9">red</text>
	</g>
</g>
<g transform="translate(990.107,167.868)">
	<g id="schematic_9_">
		<rect id="connector1terminal_8_" x="10.633" y="0.525" width="0.207" height="0.208"/>
		<rect id="connector0terminal_8_" x="10.648" y="64.314" width="0.209" height="0.207"/>
		<rect id="connector1pin_9_" x="10.029" y="0.421" width="1.375" height="10.339"/>
		<rect id="connector0pin_9_" x="10.029" y="53" width="1.375" height="11.767"/>
		<line fill="none" stroke="#000000" stroke-width="2.4" stroke-linecap="round" x1="10.752" y1="41.171" x2="10.752" y2="64.123"/>
		<line fill="none" stroke="#000000" stroke-width="2.4" stroke-linecap="round" x1="21.172" y1="41.683" x2="0.334" y2="41.683"/>
		<line fill="none" stroke="#000000" stroke-width="2.4" stroke-linecap="round" x1="10.752" y1="0.731" x2="10.752" y2="22.393"/>
		<polygon fill="none" stroke="#000000" stroke-width="2.4" stroke-linecap="round" stroke-linejoin="round" points="10.752,41.638 
			5.486,32.515 0.219,23.393 10.752,23.393 21.285,23.393 16.021,32.515 		"/>
		<path d="M27.775,47.148l2.559-2.037l1.465-1.169l1.092-0.871l3.461,9.58L27.775,47.148L27.775,47.148z"/>
		<path d="M21.227,52.138l2.557-2.039l1.463-1.168l1.092-0.87l3.471,9.581L21.227,52.138L21.227,52.138z"/>
		<line fill="none" stroke="#000000" stroke-width="2.4" stroke-linecap="round" x1="24.281" y1="37.577" x2="32.949" y2="48.061"/>
		<line fill="none" stroke="#000000" stroke-width="2.4" stroke-linecap="round" x1="19.949" y1="45.54" x2="25.516" y2="52.274"/>
	</g>
</g>
<g transform="translate(1161.93,296.813)">
	<g id="schematicLabel_11_">
		<text transform="matrix(1 0 0 1 1.9523 -4.2607)" font-family="'ArialMT'" font-size="9">S1</text>
	</g>
</g>
<g transform="translate(1148.56,305.613)">
	<g id="schematic_11_">
		<rect id="connector0pin_11_" x="11.682" y="-9.884" width="1.893" height="9.783"/>
		<rect id="connector0terminal_10_" x="12.158" y="-10.566" width="0.867" height="0.684"/>
		<rect id="connector1pin_11_" x="9.73" y="51.77" width="1.895" height="9.781"/>
		<rect id="connector1terminal_10_" x="10.211" y="61.483" width="0.867" height="0.688"/>
		<rect id="connector2pin_5_" x="11.682" y="-9.884" width="1.893" height="9.783"/>
		<rect id="connector2terminal_4_" x="12.158" y="-10.566" width="0.867" height="0.684"/>
		<rect id="connector3pin_4_" x="9.73" y="51.77" width="1.895" height="9.781"/>
		<rect id="connector3terminal_3_" x="10.211" y="61.483" width="0.867" height="0.688"/>
		<g>
			
				<line fill="none" stroke="#000000" stroke-width="2.2284" stroke-linecap="round" x1="12.611" y1="32.422" x2="10.66" y2="61.262"/>
			
				<line fill="none" stroke="#000000" stroke-width="2.2284" stroke-linecap="round" x1="12.611" y1="-9.841" x2="12.611" y2="8.215"/>
			<line fill="none" stroke="#000000" stroke-width="2.2" stroke-linecap="round" x1="12.611" y1="32.422" x2="3.033" y2="9.711"/>
			<circle cx="12.611" cy="8.215" r="2.701"/>
			<circle cx="12.611" cy="32.421" r="2.7"/>
		</g>
	</g>
</g>
<g transform="translate(1123.52,361.613)">
	<g id="schematicLabel_12_">
		<text transform="matrix(1 0 0 1 9.765625e-04 6.675)" font-family="'ArialMT'" font-size="9">R1</text>
		<text transform="matrix(1 0 0 1 9.765625e-04 15.0374)" font-family="'ArialMT'" font-size="9">220</text>
		<text transform="matrix(1 0 0 1 9.765625e-04 23.3997)" font-family="'ArialMT'" font-size="9">5%</text>
	</g>
</g>
<g transform="translate(1110.96,388.013)">
	<g id="schematic_12_">
		<rect id="connector0pin_12_" x="5.475" y="1.089" width="1.893" height="9.783"/>
		<rect id="connector0terminal_11_" x="5.954" y="0.406" width="0.865" height="0.688"/>
		<rect id="connector1pin_12_" x="5.477" y="54.369" width="1.895" height="9.783"/>
		<rect id="connector1terminal_11_" x="5.958" y="64.082" width="0.865" height="0.688"/>
		<g>
			<polyline fill="#FFFFFF" stroke="#000000" stroke-width="2.2284" stroke-linecap="round" points="6.405,1.132 6.405,20.392 
				9.905,22.255 2.655,26.291 9.905,30.324 2.655,34.359 9.905,38.392 2.655,42.427 6.405,44.599 6.458,68.21 			"/>
		</g>
	</g>
</g>
<g transform="translate(205.648,405.346)">
	<g id="schematicLabel_16_">
		<text transform="matrix(1 0 0 1 4.425049e-04 6.6755)" font-family="'ArialMT'" font-size="9">U6</text>
	</g>
</g>
<g transform="translate(73.8883,414.146)">
	<g id="schematic_16_">
		
			<rect x="22.681" y="1.08" fill="none" stroke="#000000" stroke-width="2.16" stroke-linecap="round" stroke-linejoin="round" width="86.4" height="108"/>
		<text id="label_4_" transform="matrix(1 0 0 1 57.4208 33.48)" font-family="'ArialMT'" font-size="16.92">IC</text>
		
			<line fill="none" stroke="#000000" stroke-width="2.16" stroke-linecap="round" stroke-linejoin="round" x1="1.08" y1="22.68" x2="21.6" y2="22.68"/>
		<rect id="connector0pin_16_" x="0.001" y="21.6" fill="none" width="21.6" height="2.16"/>
		<rect id="connector0terminal_15_" x="0.001" y="21.6" fill="none" width="2.16" height="2.16"/>
		<text id="label0_4_" transform="matrix(1 0 0 1 28.0804 25.1997)" font-family="'ArialMT'" font-size="9.36">1</text>
		<text id="label7_1_" transform="matrix(1 0 0 1 98.475 25.1997)" font-family="'ArialMT'" font-size="9.36">8</text>
		
			<line fill="none" stroke="#000000" stroke-width="2.16" stroke-linecap="round" stroke-linejoin="round" x1="1.08" y1="44.28" x2="21.6" y2="44.28"/>
		<rect id="connector1pin_16_" x="0.001" y="43.2" fill="none" width="21.6" height="2.16"/>
		<rect id="connector1terminal_15_" x="0.001" y="43.2" fill="none" width="2.16" height="2.16"/>
		<text id="label1_4_" transform="matrix(1 0 0 1 28.0804 46.8003)" font-family="'ArialMT'" font-size="9.36">2</text>
		<text id="label6_2_" transform="matrix(1 0 0 1 98.475 46.8003)" font-family="'ArialMT'" font-size="9.36">7</text>
		
			<line fill="none" stroke="#000000" stroke-width="2.16" stroke-linecap="round" stroke-linejoin="round" x1="1.08" y1="65.88" x2="21.6" y2="65.88"/>
		<rect id="connector2pin_6_" x="0.001" y="64.8" fill="none" width="21.6" height="2.16"/>
		<rect id="connector2terminal_5_" x="0.001" y="64.8" fill="none" width="2.16" height="2.16"/>
		<text id="label2_3_" transform="matrix(1 0 0 1 28.0804 68.3999)" font-family="'ArialMT'" font-size="9.36">3</text>
		<text id="label5_2_" transform="matrix(1 0 0 1 98.475 68.3999)" font-family="'ArialMT'" font-size="9.36">6</text>
		
			<line fill="none" stroke="#000000" stroke-width="2.16" stroke-linecap="round" stroke-linejoin="round" x1="1.08" y1="87.48" x2="21.6" y2="87.48"/>
		<rect id="connector3pin_5_" x="0.001" y="86.4" fill="none" width="21.6" height="2.16"/>
		<rect id="connector3terminal_4_" x="0.001" y="86.4" fill="none" width="2.16" height="2.16"/>
		<text id="label3_3_" transform="matrix(1 0 0 1 28.0804 90.0005)" font-family="'ArialMT'" font-size="9.36">4</text>
		<text id="label4_2_" transform="matrix(1 0 0 1 98.475 90.0005)" font-family="'ArialMT'" font-size="9.36">5</text>
	</g>
</g>
<line fill="none" stroke="#000000" stroke-width="2.4" stroke-linecap="round" x1="677.021" y1="196.967" x2="501.355" y2="195.213"/>
<circle cx="677.021" cy="196.967" r="3.6"/>
<circle cx="501.355" cy="195.213" r="3.6"/>
<line fill="none" stroke="#000000" stroke-width="2.4" stroke-linecap="round" x1="162.917" y1="193.723" x2="163.236" y2="237.093"/>
<line fill="none" stroke="#000000" stroke-width="2.4" stroke-linecap="round" x1="358.814" y1="195.016" x2="162.917" y2="193.723"/>
<circle cx="358.814" cy="195.016" r="3.6"/>
<line fill="none" stroke="#000000" stroke-width="2.4" stroke-linecap="round" x1="876.906" y1="940.013" x2="677.021" y2="938.482"/>
<circle cx="677.021" cy="938.482" r="3.6"/>
<line fill="none" stroke="#000000" stroke-width="2.4" stroke-linecap="round" x1="880.822" y1="161.613" x2="876.906" y2="940.013"/>
<line fill="none" stroke="#000000" stroke-width="2.4" stroke-linecap="round" x1="395.386" y1="159.135" x2="880.822" y2="161.613"/>
<line fill="none" stroke="#000000" stroke-width="2.4" stroke-linecap="round" x1="677.507" y1="965.239" x2="677.021" y2="938.482"/>
<circle cx="677.507" cy="965.239" r="3.6"/>
<circle cx="677.021" cy="938.482" r="3.6"/>
<line fill="none" stroke="#000000" stroke-width="2.4" stroke-linecap="round" x1="13.243" y1="960.435" x2="269.355" y2="961.613"/>
<line fill="none" stroke="#000000" stroke-width="2.4" stroke-linecap="round" x1="369.355" y1="963.213" x2="677.507" y2="965.239"/>
<circle cx="677.507" cy="965.239" r="3.6"/>
<line fill="none" stroke="#000000" stroke-width="2.4" stroke-linecap="round" x1="269.355" y1="961.613" x2="369.355" y2="963.213"/>
<circle cx="369.355" cy="963.213" r="3.6"/>
<line fill="none" stroke="#000000" stroke-width="2.4" stroke-linecap="round" x1="4.834" y1="300.976" x2="13.243" y2="960.435"/>
<line fill="none" stroke="#000000" stroke-width="2.4" stroke-linecap="round" x1="163.236" y1="301.893" x2="4.834" y2="300.976"/>
<line fill="none" stroke="#000000" stroke-width="2.4" stroke-linecap="round" x1="341.355" y1="852.812" x2="577.015" y2="853.666"/>
<line fill="none" stroke="#000000" stroke-width="2.4" stroke-linecap="round" x1="342.556" y1="174.413" x2="341.355" y2="852.812"/>
<line fill="none" stroke="#000000" stroke-width="2.4" stroke-linecap="round" x1="150.18" y1="174.447" x2="342.556" y2="174.413"/>
<line fill="none" stroke="#000000" stroke-width="2.4" stroke-linecap="round" x1="150.18" y1="258.821" x2="150.18" y2="174.133"/>
<line fill="none" stroke="#000000" stroke-width="2.4" stroke-linecap="round" x1="170.584" y1="258.867" x2="150.18" y2="258.821"/>
<line fill="none" stroke="#000000" stroke-width="2.4" stroke-linecap="round" x1="327.958" y1="872.748" x2="577.015" y2="874.902"/>
<line fill="none" stroke="#000000" stroke-width="2.4" stroke-linecap="round" x1="328.956" y1="156.813" x2="327.958" y2="872.748"/>
<line fill="none" stroke="#000000" stroke-width="2.4" stroke-linecap="round" x1="139.369" y1="156.631" x2="328.956" y2="156.813"/>
<line fill="none" stroke="#000000" stroke-width="2.4" stroke-linecap="round" x1="139.584" y1="280.379" x2="139.369" y2="156.621"/>
<line fill="none" stroke="#000000" stroke-width="2.4" stroke-linecap="round" x1="163.236" y1="280.283" x2="139.584" y2="280.379"/>
<line fill="none" stroke="#000000" stroke-width="2.4" stroke-linecap="round" x1="939.259" y1="537.064" x2="776.519" y2="536.94"/>
<line fill="none" stroke="#000000" stroke-width="2.4" stroke-linecap="round" x1="831.261" y1="965.241" x2="677.507" y2="965.239"/>
<circle cx="677.507" cy="965.239" r="3.6"/>
<line fill="none" stroke="#000000" stroke-width="2.4" stroke-linecap="round" x1="831.261" y1="556.832" x2="831.261" y2="965.241"/>
<line fill="none" stroke="#000000" stroke-width="2.4" stroke-linecap="round" x1="939.259" y1="558.664" x2="831.263" y2="556.832"/>
<line fill="none" stroke="#000000" stroke-width="2.4" stroke-linecap="round" x1="818.957" y1="558.413" x2="776.517" y2="558.176"/>
<line fill="none" stroke="#000000" stroke-width="2.4" stroke-linecap="round" x1="818.957" y1="578.413" x2="818.957" y2="558.413"/>
<line fill="none" stroke="#000000" stroke-width="2.4" stroke-linecap="round" x1="939.259" y1="580.264" x2="818.957" y2="578.413"/>
<line fill="none" stroke="#000000" stroke-width="2.4" stroke-linecap="round" x1="796.556" y1="644.013" x2="795.755" y2="601.613"/>
<line fill="none" stroke="#000000" stroke-width="2.4" stroke-linecap="round" x1="795.755" y1="601.613" x2="776.517" y2="600.76"/>
<line fill="none" stroke="#000000" stroke-width="2.4" stroke-linecap="round" x1="939.259" y1="645.064" x2="796.556" y2="644.013"/>
<line fill="none" stroke="#000000" stroke-width="2.4" stroke-linecap="round" x1="808.556" y1="623.213" x2="808.556" y2="580.013"/>
<line fill="none" stroke="#000000" stroke-width="2.4" stroke-linecap="round" x1="808.556" y1="580.013" x2="776.591" y2="579.41"/>
<line fill="none" stroke="#000000" stroke-width="2.4" stroke-linecap="round" x1="939.259" y1="623.464" x2="808.556" y2="623.213"/>
<line fill="none" stroke="#000000" stroke-width="2.4" stroke-linecap="round" x1="916.546" y1="602.477" x2="922.552" y2="121.997"/>
<line fill="none" stroke="#000000" stroke-width="2.4" stroke-linecap="round" x1="922.552" y1="121.997" x2="358.39" y2="118.393"/>
<line fill="none" stroke="#000000" stroke-width="2.4" stroke-linecap="round" x1="358.39" y1="118.393" x2="358.814" y2="195.016"/>
<circle cx="358.814" cy="195.016" r="3.6"/>
<line fill="none" stroke="#000000" stroke-width="2.4" stroke-linecap="round" x1="939.259" y1="601.864" x2="916.548" y2="602.479"/>
<line fill="none" stroke="#000000" stroke-width="2.4" stroke-linecap="round" x1="777.355" y1="78.413" x2="996.841" y2="76.51"/>
<line fill="none" stroke="#000000" stroke-width="2.4" stroke-linecap="round" x1="776.517" y1="302.609" x2="777.355" y2="78.413"/>
<line fill="none" stroke="#000000" stroke-width="2.4" stroke-linecap="round" x1="1094.16" y1="995.213" x2="677.507" y2="992.869"/>
<line fill="none" stroke="#000000" stroke-width="2.4" stroke-linecap="round" x1="1094.16" y1="768.013" x2="1094.16" y2="995.213"/>
<circle cx="1094.16" cy="768.013" r="3.6"/>
<line fill="none" stroke="#000000" stroke-width="2.4" stroke-linecap="round" x1="1094.16" y1="620.812" x2="1094.16" y2="768.013"/>
<circle cx="1094.16" cy="768.013" r="3.6"/>
<line fill="none" stroke="#000000" stroke-width="2.4" stroke-linecap="round" x1="1094.417" y1="499.723" x2="1094.16" y2="544.013"/>
<line fill="none" stroke="#000000" stroke-width="2.4" stroke-linecap="round" x1="1094.16" y1="544.013" x2="1094.16" y2="620.812"/>
<line fill="none" stroke="#000000" stroke-width="2.4" stroke-linecap="round" x1="1094.16" y1="232.013" x2="1094.16" y2="456.013"/>
<circle cx="1094.16" cy="232.013" r="3.6"/>
<circle cx="1094.16" cy="456.013" r="3.6"/>
<line fill="none" stroke="#000000" stroke-width="2.4" stroke-linecap="round" x1="677.507" y1="992.869" x2="677.507" y2="965.239"/>
<circle cx="677.507" cy="965.239" r="3.6"/>
<line fill="none" stroke="#000000" stroke-width="2.4" stroke-linecap="round" x1="1094.16" y1="456.013" x2="1094.417" y2="499.723"/>
<circle cx="1094.16" cy="456.013" r="3.6"/>
<line fill="none" stroke="#000000" stroke-width="2.4" stroke-linecap="round" x1="1095.761" y1="139.213" x2="1094.16" y2="232.013"/>
<circle cx="1094.16" cy="232.013" r="3.6"/>
<line fill="none" stroke="#000000" stroke-width="2.4" stroke-linecap="round" x1="996.859" y1="140.298" x2="1095.761" y2="139.213"/>
<line fill="none" stroke="#000000" stroke-width="2.4" stroke-linecap="round" x1="961.355" y1="321.613" x2="961.355" y2="169.613"/>
<line fill="none" stroke="#000000" stroke-width="2.4" stroke-linecap="round" x1="961.355" y1="169.613" x2="1000.841" y2="168.497"/>
<line fill="none" stroke="#000000" stroke-width="2.4" stroke-linecap="round" x1="776.517" y1="323.845" x2="961.355" y2="321.613"/>
<line fill="none" stroke="#000000" stroke-width="2.4" stroke-linecap="round" x1="1000.861" y1="232.286" x2="1094.16" y2="232.013"/>
<circle cx="1094.16" cy="232.013" r="3.6"/>
<line fill="none" stroke="#000000" stroke-width="2.4" stroke-linecap="round" x1="1116.56" y1="366.413" x2="776.517" y2="366.419"/>
<circle cx="1117.56" cy="366.413" r="3.6"/>
<line fill="none" stroke="#000000" stroke-width="2.4" stroke-linecap="round" x1="1159.201" y1="367.44" x2="1116.55" y2="366.412"/>
<line fill="none" stroke="#000000" stroke-width="2.4" stroke-linecap="round" x1="1117.341" y1="388.761" x2="1117.251" y2="365.723"/>
<line fill="none" stroke="#000000" stroke-width="2.4" stroke-linecap="round" x1="1117.417" y1="456.223" x2="1094.16" y2="456.012"/>
<circle cx="1094.16" cy="456.012" r="3.6"/>
<circle cx="1094.16" cy="768.013" r="3.6"/>
<line fill="none" stroke="#000000" stroke-width="2.4" stroke-linecap="round" x1="183.417" y1="438.223" x2="317.355" y2="438.413"/>
<line fill="none" stroke="#000000" stroke-width="2.4" stroke-linecap="round" x1="313.355" y1="831.213" x2="577.015" y2="832.429"/>
<line fill="none" stroke="#000000" stroke-width="2.4" stroke-linecap="round" x1="317.355" y1="438.413" x2="313.355" y2="831.213"/>
<line fill="none" stroke="#000000" stroke-width="2.4" stroke-linecap="round" x1="74.969" y1="436.826" x2="74.156" y2="393.613"/>
<line fill="none" stroke="#000000" stroke-width="2.4" stroke-linecap="round" x1="74.156" y1="393.613" x2="358.156" y2="390.413"/>
<line fill="none" stroke="#000000" stroke-width="2.4" stroke-linecap="round" x1="358.156" y1="390.413" x2="358.156" y2="809.613"/>
<line fill="none" stroke="#000000" stroke-width="2.4" stroke-linecap="round" x1="358.156" y1="809.613" x2="577.015" y2="811.195"/>
<line fill="none" stroke="#000000" stroke-width="2.4" stroke-linecap="round" x1="296.556" y1="789.613" x2="577.015" y2="789.957"/>
<line fill="none" stroke="#000000" stroke-width="2.4" stroke-linecap="round" x1="298.156" y1="550.413" x2="296.556" y2="789.613"/>
<line fill="none" stroke="#000000" stroke-width="2.4" stroke-linecap="round" x1="74.956" y1="548.812" x2="298.156" y2="550.413"/>
<line fill="none" stroke="#000000" stroke-width="2.4" stroke-linecap="round" x1="74.969" y1="501.626" x2="74.956" y2="548.812"/>
<line fill="none" stroke="#000000" stroke-width="2.4" stroke-linecap="round" x1="467.756" y1="505.613" x2="503.756" y2="504.812"/>
<circle cx="467.756" cy="505.613" r="3.6"/>
<line fill="none" stroke="#000000" stroke-width="2.4" stroke-linecap="round" x1="503.756" y1="504.812" x2="501.355" y2="195.213"/>
<circle cx="501.355" cy="195.213" r="3.6"/>
<line fill="none" stroke="#000000" stroke-width="2.4" stroke-linecap="round" x1="416.556" y1="504.013" x2="467.756" y2="505.613"/>
<circle cx="416.556" cy="504.013" r="3.6"/>
<circle cx="467.756" cy="505.613" r="3.6"/>
<line fill="none" stroke="#000000" stroke-width="2.4" stroke-linecap="round" x1="182.417" y1="503.723" x2="416.556" y2="504.013"/>
<circle cx="416.556" cy="504.013" r="3.6"/>
<line fill="none" stroke="#000000" stroke-width="2.4" stroke-linecap="round" x1="431.814" y1="195.016" x2="501.355" y2="195.213"/>
<circle cx="431.814" cy="195.016" r="3.6"/>
<circle cx="501.355" cy="195.213" r="3.6"/>
<line fill="none" stroke="#000000" stroke-width="2.4" stroke-linecap="round" x1="1161.152" y1="295.389" x2="1226.751" y2="295.389"/>
<circle cx="1161.152" cy="295.389" r="3.6"/>
<line fill="none" stroke="#000000" stroke-width="2.4" stroke-linecap="round" x1="844.556" y1="295.213" x2="1161.152" y2="295.389"/>
<circle cx="1161.152" cy="295.389" r="3.6"/>
<line fill="none" stroke="#000000" stroke-width="2.4" stroke-linecap="round" x1="845.355" y1="198.413" x2="844.556" y2="295.213"/>
<line fill="none" stroke="#000000" stroke-width="2.4" stroke-linecap="round" x1="677.021" y1="196.967" x2="845.355" y2="198.413"/>
<circle cx="677.021" cy="196.967" r="3.6"/>
<line fill="none" stroke="#000000" stroke-width="2.4" stroke-linecap="round" x1="1161.152" y1="295.389" x2="1161.152" y2="295.389"/>
<circle cx="1161.152" cy="295.389" r="3.6"/>
<circle cx="1161.152" cy="295.389" r="3.6"/>
<line fill="none" stroke="#000000" stroke-width="2.4" stroke-linecap="round" x1="417.343" y1="544.525" x2="416.556" y2="504.013"/>
<circle cx="416.556" cy="504.013" r="3.6"/>
<line fill="none" stroke="#000000" stroke-width="2.4" stroke-linecap="round" x1="468.262" y1="546.778" x2="467.756" y2="505.613"/>
<circle cx="467.756" cy="505.613" r="3.6"/>
<line fill="none" stroke="#000000" stroke-width="2.4" stroke-linecap="round" x1="372.556" y1="655.213" x2="369.355" y2="963.213"/>
<circle cx="372.556" cy="657.213" r="3.6"/>
<line fill="none" stroke="#000000" stroke-width="2.4" stroke-linecap="round" x1="373.355" y1="604.013" x2="373.355" y2="624.812"/>
<circle cx="373.355" cy="604.013" r="3.6"/>
<circle cx="373.355" cy="624.813" r="3.6"/>
<line fill="none" stroke="#000000" stroke-width="2.4" stroke-linecap="round" x1="373.355" y1="624.812" x2="372.556" y2="655.213"/>
<circle cx="373.355" cy="624.813" r="3.6"/>
<line fill="none" stroke="#000000" stroke-width="2.4" stroke-linecap="round" x1="371.756" y1="480.013" x2="372.556" y2="586.413"/>
<circle cx="372.556" cy="586.413" r="3.6"/>
<line fill="none" stroke="#000000" stroke-width="2.4" stroke-linecap="round" x1="183.417" y1="479.723" x2="371.756" y2="480.013"/>
<line fill="none" stroke="#000000" stroke-width="2.4" stroke-linecap="round" x1="372.556" y1="586.413" x2="373.355" y2="604.013"/>
<circle cx="372.556" cy="586.413" r="3.6"/>
<line fill="none" stroke="#000000" stroke-width="2.4" stroke-linecap="round" x1="417.343" y1="587.557" x2="372.556" y2="586.413"/>
<circle cx="372.556" cy="586.413" r="3.6"/>
<line fill="none" stroke="#000000" stroke-width="2.4" stroke-linecap="round" x1="468.556" y1="625.613" x2="373.355" y2="624.812"/>
<circle cx="373.355" cy="624.813" r="3.6"/>
<line fill="none" stroke="#000000" stroke-width="2.4" stroke-linecap="round" x1="468.262" y1="589.81" x2="468.556" y2="625.613"/>
<line fill="none" stroke="#000000" stroke-width="2.4" stroke-linecap="round" x1="286.652" y1="604.794" x2="372.417" y2="605.223"/>
<line fill="none" stroke="#000000" stroke-width="2.4" stroke-linecap="round" x1="286.104" y1="656.912" x2="370.417" y2="657.223"/>
<line fill="none" stroke="#000000" stroke-width="2.4" stroke-linecap="round" x1="228.355" y1="458.613" x2="228.556" y2="604.812"/>
<circle cx="228.556" cy="604.813" r="3.6"/>
<line fill="none" stroke="#000000" stroke-width="2.4" stroke-linecap="round" x1="243.62" y1="604.794" x2="228.556" y2="604.812"/>
<circle cx="228.556" cy="604.813" r="3.6"/>
<line fill="none" stroke="#000000" stroke-width="2.4" stroke-linecap="round" x1="228.756" y1="656.812" x2="228.556" y2="604.812"/>
<circle cx="228.556" cy="604.813" r="3.6"/>
<line fill="none" stroke="#000000" stroke-width="2.4" stroke-linecap="round" x1="243.073" y1="656.912" x2="228.756" y2="656.812"/>
<line fill="none" stroke="#000000" stroke-width="2.4" stroke-linecap="round" x1="228.355" y1="458.613" x2="183.417" y2="458.223"/>
<g transform="translate(1161.93,296.813)">
	<g id="schematicLabel_10_">
		<text transform="matrix(1 0 0 1 97.6193 -3.9272)" font-family="'ArialMT'" font-size="9">S1</text>
	</g>
</g>
<g transform="translate(1148.56,305.613)">
	<g id="schematic_10_">
		<rect id="connector0pin_10_" x="107.349" y="-9.551" width="1.893" height="9.783"/>
		<rect id="connector0terminal_9_" x="107.825" y="-10.233" width="0.867" height="0.684"/>
		<rect id="connector1terminal_9_" x="107.762" y="134.098" width="0.867" height="0.688"/>
		<rect id="connector2pin_4_" x="107.349" y="-9.551" width="1.893" height="9.783"/>
		<rect id="connector2terminal_3_" x="107.825" y="-10.233" width="0.867" height="0.684"/>
		<rect id="connector3terminal_2_" x="107.762" y="134.098" width="0.867" height="0.688"/>
		<g>
			<path fill="none" stroke="#000000" stroke-width="2.2284" stroke-linecap="round" d="M108.211,133.878"/>
			<path fill="none" stroke="#000000" stroke-width="2.2284" stroke-linecap="round" d="M108.278-9.508"/>
		</g>
	</g>
</g>
<line fill="none" stroke="#000000" stroke-width="2.4" stroke-linecap="round" x1="1256.751" y1="440.056" x2="1301.417" y2="439.723"/>
<line fill="none" stroke="#000000" stroke-width="2.4" stroke-linecap="round" x1="1256.819" y1="295.723" x2="1256.385" y2="295.38"/>
<circle cx="1256.819" cy="295.722" r="3.6"/>
<line fill="none" stroke="#000000" stroke-width="2.4" stroke-linecap="round" x1="1224.751" y1="295.39" x2="1256.819" y2="295.723"/>
<circle cx="1256.819" cy="295.722" r="3.6"/>
<line fill="none" stroke="#000000" stroke-width="2.4" stroke-linecap="round" x1="1256.819" y1="295.723" x2="1256.819" y2="295.723"/>
<circle cx="1256.819" cy="295.722" r="3.6"/>
<circle cx="1256.819" cy="295.722" r="3.6"/>
<ellipse fill="none" stroke="#000000" stroke-width="2.4" stroke-linecap="round" cx="1257.917" cy="329.723" rx="23.5" ry="23"/>
<polyline fill="#FFFFFF" stroke="#000000" stroke-width="2.2284" stroke-linecap="round" points="1256.417,298.462 
	1256.417,317.723 1259.917,319.585 1252.667,323.621 1259.917,327.654 1252.667,331.689 1259.917,335.723 1252.667,339.758 
	1256.417,341.93 1256.322,439.711 "/>
<line fill="none" stroke="#000000" stroke-width="2.2284" stroke-linecap="round" x1="1301.417" y1="438.723" x2="1302.417" y2="57.723"/>
<line fill="none" stroke="#000000" stroke-width="2.2284" stroke-linecap="round" x1="1302.417" y1="57.723" x2="535.417" y2="57.723"/>
<line fill="none" stroke="#000000" stroke-width="2.2284" stroke-linecap="round" x1="535.417" y1="57.723" x2="535.417" y2="338.723"/>
<line fill="none" stroke="#000000" stroke-width="2.2284" stroke-linecap="round" x1="535.417" y1="338.723" x2="574.195" y2="339.579"/>
</svg>
